<?xml version="1.0" encoding="UTF-8"?><svg id="a" xmlns="http://www.w3.org/2000/svg" viewBox="0 0 594.79 159"><defs><style>.b{fill:#20201e;}.c{fill:#53a151;}.d{fill:#fff;stroke:#000;stroke-miterlimit:10;}</style></defs><rect class="d" x=".5" y=".5" width="593.79" height="158"/><path class="c" d="M20.7,68.52c-1,0-1.39-.35-1.39-1.25v-.35c0-.82,.21-1.24,1.39-1.24h.27c2.49,0,3-.07,3-1.94V25.92c0-3.66-.14-4.35-3.32-4.35h-.28c-1.17,0-1.52-.42-1.52-1.25v-.29c0-.9,.55-1.25,1.52-1.25h13.49c1,0,1.46,.35,1.46,1.25v.34c0,.83-.28,1.25-1.46,1.25h-.27c-2.84,0-3.25,.41-3.32,3v17.63l17.49-18.32c1.32-1.31,1.59-2.28,0-2.28h-1.2c-1.11,0-1.39-.42-1.39-1.32,0-1.1,.35-1.52,1.53-1.52h10.44c1,0,1.45,.35,1.45,1.25v.34c0,.83-.35,1.25-1.45,1.25h-.28c-2.15,0-3.18,.34-6.71,4.15l-14.1,14.79,14.31,18.38c4.63,6.16,5.46,6.71,7.4,6.71h.27c1.18,0,1.53,.42,1.53,1.24v.35c0,1-.83,1.25-1.53,1.25h-4.08c-3.8,0-4.9-.35-9.33-6.57l-14.31-19.09v19.92c0,2.76,.34,2.9,2.9,2.9h.28c1.17,0,1.52,.42,1.52,1.24v.35c0,.9-.55,1.25-1.52,1.25h-12.79Z"/><path class="c" d="M96.13,68.52c-.83,0-1.31-.35-1.31-1.18v-.42c0-1,.35-1.24,1.31-1.24h1.59c1.18,0,1.87-.21,1.87-1.18-.04-.71-.2-1.41-.48-2.07l-3.11-9.13h-16.81l-3.11,9.41c-.9,2.76-.48,3,.69,3h2.63c.83,0,1.25,.35,1.25,1.11v.55c0,.76-.28,1.18-1.25,1.18h-11.27c-.9,0-1.38-.35-1.38-1.18v-.48c0-.76,.34-1.18,1.38-1.18h1.94c1.31,0,1.73-.35,2.76-3.32l14.59-42.94c.35-.89,.56-1.31,1.52-1.31h.35c.9,0,1.17,.35,1.52,1.31l14.73,42.39c1.17,3.52,1.52,3.87,4.35,3.87h.56c.9,0,1.31,.35,1.31,1.18v.48c0,.76-.28,1.18-1.31,1.18l-14.32-.03Zm-16.11-17.84h15.08l-7.61-22.27-7.47,22.27Z"/><path class="c" d="M159.68,68.52c-.9,0-1.52-.35-1.52-1.25v-.35c0-.82,.34-1.24,1.52-1.24h.35c4,0,4.21-.48,4.21-4.29V25.79l-16.25,42.1c-.34,.83-.62,1.11-1.45,1.11h-.41c-1,0-1.38-.28-1.66-1.11l-16.18-42.1V61.32c0,3.67,.14,4.36,4,4.36h.34c1.25,0,1.6,.42,1.6,1.24v.35c0,.9-.56,1.25-1.6,1.25h-12.3c-.9,0-1.52-.35-1.52-1.25v-.35c0-.82,.34-1.24,1.52-1.24h.41c3.46,0,4-.35,4.15-3V23.37c-.14-1.66-.83-1.8-3.66-1.8h-.49c-.9,0-1.52-.35-1.52-1.25v-.29c0-.83,.42-1.25,1.52-1.25h8.85c1.27-.14,2.47,.6,2.91,1.8l15.36,39.45,14.79-39.48c.49-1.38,.9-1.8,2.35-1.8h1.18v.14l.14-.14h7.19c1.1,0,1.45,.42,1.45,1.25v.34c0,.9-.48,1.25-1.45,1.25h-.49c-2.42,0-3,.14-3,1.66V62.59c.07,2.63,.62,3.11,4,3.11h.35c1.24,0,1.66,.42,1.66,1.24v.35c0,.9-.62,1.25-1.66,1.25l-14.69-.02Z"/><path class="c" d="M226.68,68.52c-.9,0-1.52-.35-1.52-1.25v-.35c0-.82,.35-1.24,1.52-1.24h.35c4,0,4.22-.48,4.22-4.29V25.79l-16.25,42.1c-.35,.83-.62,1.11-1.45,1.11h-.42c-1,0-1.38-.28-1.66-1.11l-16.18-42.1V61.32c0,3.67,.14,4.36,4,4.36h.35c1.24,0,1.59,.42,1.59,1.24v.35c0,.9-.55,1.25-1.59,1.25h-12.3c-.9,0-1.52-.35-1.52-1.25v-.35c0-.82,.35-1.24,1.52-1.24h.42c3.45,0,4-.35,4.14-3V23.37c-.13-1.66-.82-1.8-3.66-1.8h-.48c-.9,0-1.52-.35-1.52-1.25v-.29c0-.83,.41-1.25,1.52-1.25h8.85c1.27-.14,2.46,.6,2.9,1.8l15.35,39.45,14.8-39.48c.48-1.38,.9-1.8,2.35-1.8h1.17v.14l.14-.14h7.19c1.11,0,1.45,.42,1.45,1.25v.34c0,.9-.48,1.25-1.45,1.25h-.48c-2.42,0-3,.14-3,1.66V62.59c.06,2.63,.62,3.11,4,3.11h.34c1.25,0,1.66,.42,1.66,1.24v.35c0,.9-.62,1.25-1.66,1.25l-14.69-.02Z"/><path class="c" d="M254.86,68.52c-1,0-1.38-.35-1.38-1.25v-.24c0-.89,.34-1.24,1.38-1.24h.48c2.91,0,3.25-.28,3.25-2.35V23.78c0-2.07-.41-2.28-3.25-2.28h-.48c-.83,0-1.38-.35-1.38-1.25v-.22c0-.83,.34-1.25,1.38-1.25h27.59c1.79,0,2.28,.69,2.49,2l.76,5.6c.13,.83-.14,1.31-1,1.31h-.62c-.83,0-1.11-.27-1.53-1.38l-.76-2.63c-.55-1.59-1.17-2.07-3.66-2.07h-13.21v19.63h7.26c2.77,0,3.46-.48,4.15-3.18l.14-.34c.21-1.25,.69-1.52,1.45-1.52h.28c.9,0,1.11,.34,1.11,1.38v10.3c0,.9-.14,1.25-1,1.25h-.28c-.9,0-1.24-.28-1.52-1.46l-.07-.34c-.55-3-1.24-3.25-4.08-3.25h-7.4v17.84c.07,3.59,.77,3.8,4.64,3.8h8.64c3.11,0,3.8-.35,4.42-2.42l1.25-3.87c.35-1.11,.62-1.38,1.59-1.38h.62c.83,0,1,.48,.9,1.38l-1.16,6.18c-.34,2.42-1,2.91-3.8,2.91h-27.2Z"/><path class="c" d="M316.09,18.73c10.72,0,15.9,6,15.9,13.83s-5.18,12.24-12.44,13.35c2.7,1.31,5.05,4.56,6.64,7.6l1.59,2.91c4.7,8.85,5,9.26,8.71,9.26,1,0,1.38,.42,1.38,1.31v.28c0,1-.34,1.25-1.59,1.25h-1.59c-7.4,0-8.09-.9-13.07-10.58l-2.07-4c-2.14-4.15-5.05-7.68-8.92-7.68h-1.66v16.53c0,2.76,.35,2.9,3.25,2.9h.28c1.24,0,1.59,.42,1.59,1.24v.35c0,.9-.56,1.25-1.59,1.25h-13.49c-1,0-1.45-.35-1.45-1.25v-.35c0-.82,.28-1.24,1.45-1.24h.28c3.73,0,3.39-.28,3.39-4.7V26.03c0-3.66-.14-4.42-3.67-4.42h-.34c-1.18,0-1.52-.42-1.52-1.25v-.33c0-.9,.55-1.25,1.52-1.25l17.42-.05Zm-7.12,24.62h5.95c7,0,10.85-4.08,10.85-10.72s-3.59-11.06-10.85-11.06h-2.29c-3.38,0-3.66,.69-3.66,4.49v17.29Z"/><path class="c" d="M385.93,68.52c-.9,0-1.52-.35-1.52-1.25v-.35c0-.82,.34-1.24,1.52-1.24h.34c4,0,4.22-.48,4.22-4.29V25.79l-16.25,42.1c-.34,.83-.62,1.11-1.45,1.11h-.41c-1,0-1.39-.28-1.66-1.11l-16.18-42.1V61.32c0,3.67,.14,4.36,4,4.36h.32c1.25,0,1.59,.42,1.59,1.24v.35c0,.9-.55,1.25-1.59,1.25h-12.3c-.9,0-1.52-.35-1.52-1.25v-.35c0-.82,.34-1.24,1.52-1.24h.41c3.46,0,4-.35,4.15-3V23.37c-.14-1.66-.83-1.8-3.66-1.8h-.49c-.9,0-1.52-.35-1.52-1.25v-.29c0-.83,.42-1.25,1.52-1.25h8.89c1.27-.14,2.47,.6,2.91,1.8l15.34,39.45,14.75-39.5c.49-1.38,.9-1.8,2.35-1.8h1.18v.14l.14-.14h7.19c1.1,0,1.45,.42,1.45,1.25v.34c0,.9-.49,1.25-1.45,1.25h-.49c-2.42,0-3,.14-3,1.66V62.57c.07,2.63,.62,3.11,4,3.11h.35c1.24,0,1.66,.42,1.66,1.24v.35c0,.9-.63,1.25-1.66,1.25h-14.65Z"/><path class="c" d="M414.14,68.52c-1,0-1.38-.35-1.38-1.25v-.24c0-.89,.35-1.24,1.38-1.24h.49c2.9,0,3.25-.28,3.25-2.35V23.78c0-2.07-.42-2.28-3.25-2.28h-.49c-.82,0-1.38-.35-1.38-1.25v-.22c0-.83,.35-1.25,1.38-1.25h27.59c1.8,0,2.28,.69,2.49,2l.76,5.6c.14,.83-.14,1.31-1,1.31h-.62c-.83,0-1.1-.27-1.52-1.38l-.76-2.63c-.55-1.59-1.18-2.07-3.66-2.07h-13.25v19.63h7.26c2.77,0,3.46-.48,4.15-3.18l.14-.34c.2-1.25,.69-1.52,1.45-1.52h.28c.89,0,1.1,.34,1.1,1.38v10.3c0,.9-.14,1.25-1,1.25h-.27c-.9,0-1.25-.28-1.52-1.46l-.07-.34c-.56-3-1.25-3.25-4.08-3.25h-7.4v17.84c.07,3.59,.76,3.8,4.63,3.8h8.65c3.11,0,3.8-.35,4.42-2.42l1.25-3.87c.34-1.11,.62-1.38,1.59-1.38h.62c.83,0,1,.48,.9,1.38l-1.11,6.22c-.35,2.42-1,2.91-3.8,2.91l-27.22-.04Z"/><path class="c" d="M458.12,68.52c-.9,0-1.45-.35-1.45-1.25v-.35c0-.82,.34-1.24,1.45-1.24h.35c3.18,0,3.38-.14,3.38-2.9V25.92c0-3.66-.13-4.35-3-4.35h-.27c-1.25,0-1.53-.42-1.53-1.25v-.29c0-.9,.56-1.25,1.53-1.25h12.93c.89,0,1.52,.35,1.52,1.25v.34c0,.83-.35,1.25-1.52,1.25h-.28c-2.91,0-3.11,.48-3.11,4.22V63.59c.07,2.07,.69,2.14,3.32,2.14h.27c1.25,0,1.59,.42,1.59,1.24v.35c0,.9-.55,1.25-1.59,1.25l-13.59-.05Z"/><path class="c" d="M485.86,68.52c-1,0-1.38-.35-1.38-1.25v-.24c0-.89,.34-1.24,1.38-1.24h.48c2.9,0,3.25-.28,3.25-2.35V23.78c0-2.07-.41-2.28-3.25-2.28h-.48c-.83,0-1.38-.35-1.38-1.25v-.22c0-.83,.34-1.25,1.38-1.25h27.59c1.79,0,2.28,.69,2.49,2l.76,5.6c.13,.83-.14,1.31-1,1.31h-.62c-.83,0-1.11-.27-1.52-1.38l-.77-2.63c-.55-1.59-1.17-2.07-3.66-2.07h-13.27v19.63h7.26c2.77,0,3.46-.48,4.15-3.18l.14-.34c.21-1.25,.69-1.52,1.45-1.52h.28c.9,0,1.11,.34,1.11,1.38v10.3c0,.9-.14,1.25-1,1.25h-.28c-.9,0-1.24-.28-1.52-1.46l-.07-.34c-.55-3-1.24-3.25-4.08-3.25h-7.44v17.84c.07,3.59,.77,3.8,4.64,3.8h8.64c3.11,0,3.8-.35,4.43-2.42l1.24-3.87c.35-1.11,.62-1.38,1.59-1.38h.62c.83,0,1,.48,.9,1.38l-1.06,6.18c-.34,2.42-1,2.91-3.8,2.91h-27.2Z"/><path class="c" d="M547.04,18.73c10.72,0,15.9,6,15.9,13.83s-5.18,12.24-12.44,13.35c2.7,1.31,5.05,4.56,6.64,7.6l1.59,2.91c4.7,8.85,5,9.26,8.71,9.26,1,0,1.38,.42,1.38,1.31v.28c0,1-.34,1.25-1.59,1.25h-1.59c-7.4,0-8.09-.9-13.07-10.58l-2.07-4c-2.14-4.15-5-7.68-8.92-7.68h-1.66v16.53c0,2.76,.35,2.9,3.25,2.9h.28c1.24,0,1.59,.42,1.59,1.24v.35c0,.9-.56,1.25-1.59,1.25h-13.49c-1,0-1.45-.35-1.45-1.25v-.35c0-.82,.28-1.24,1.45-1.24h.28c3.73,0,3.39-.28,3.39-4.7V26.03c0-3.66-.14-4.42-3.67-4.42h-.34c-1.18,0-1.52-.42-1.52-1.25v-.33c0-.9,.55-1.25,1.52-1.25l17.42-.05Zm-7.12,24.62h6c7,0,10.85-4.08,10.85-10.72s-3.59-11.06-10.85-11.06h-2.29c-3.38,0-3.66,.69-3.66,4.49l-.05,17.29Z"/><path class="b" d="M41.47,122.03c.15-.93,.34-1.84,.59-2.75,.3-1.17,.68-2.42,1.15-3.75,.98-2.84,2.26-5.57,3.82-8.14,.16-.3,.45-.51,.78-.57,.39-.06,.79-.09,1.19-.09,.31,0,.62,.03,.92,.11,.23,.06,.45,.16,.64,.3,.3,.26,.36,.53,.15,.81-2.04,3.17-3.67,6.58-4.85,10.16-.38,1.04-.7,2.11-.94,3.2-.1,.6-.17,1-.22,1.23-.04,.19-.07,.38-.07,.57,0,.34,.22,.51,.64,.51,.5-.01,.99-.12,1.45-.3,.59-.23,1.17-.51,1.71-.84,.66-.4,1.3-.85,1.91-1.33,.69-.54,1.33-1.13,1.94-1.76,.64-.66,1.24-1.36,1.79-2.1,.56-.75,1.06-1.55,1.48-2.39,.89-1.68,1.36-3.55,1.39-5.45,0-2.45-1-4.08-3-4.89-.69-.27-1.43-.41-2.17-.41-.64,0-1.28,.04-1.91,.14-.51,.1-1.01,.24-1.5,.41-.9,.3-1.73,.78-2.45,1.4-.19,.1-.41,.15-.63,.15-.28,0-.55-.08-.79-.22-.28-.14-.53-.32-.76-.53-.44-.34-.68-.89-.61-1.44,.11-.66,1.09-1.22,2.94-1.71,1.53-.39,3.11-.59,4.69-.59,1.45-.02,2.88,.19,4.26,.64,1.13,.36,2.18,.95,3.07,1.73,1.5,1.43,2.3,3.44,2.21,5.51-.06,3.2-1.17,6.3-3.16,8.81-1.79,2.52-4.16,4.58-6.9,6-1.46,.81-3.1,1.26-4.77,1.32-1.06,.03-2.1-.33-2.92-1-.84-.64-1.25-1.7-1.07-2.74Z"/><path class="b" d="M68.35,122.73c.27,0,.4,.17,.4,.52-.03,.54-.26,1.04-.63,1.43-.62,.71-1.53,1.11-2.47,1.07-1.04,.09-2.01-.49-2.44-1.44-.17-.39-.25-.81-.24-1.23,0-.54,.09-1.08,.25-1.6,.17-.59,.38-1.21,.63-1.86,.25-.64,.52-1.3,.82-2l.81-1.93c.44-.9,.74-1.86,.89-2.85,.02-.31-.02-.62-.14-.91-.09-.13-.19-.25-.32-.35l-.3-.21c-.12-.09-.18-.23-.16-.38,0-.19,.08-.37,.21-.51,.15-.17,.34-.32,.54-.43,.52-.24,1.09-.35,1.66-.32,1.51,0,2.26,.39,2.26,1.18-.04,1.09-.28,2.16-.72,3.15-.48,1.18-.89,2.13-1.23,2.86l-.97,2.11c-.53,1.05-.86,2.19-1,3.36-.02,.33,.22,.62,.56,.64,.03,0,.07,0,.1,0,.34,.02,.68-.04,1-.17,.15-.08,.32-.12,.49-.13Zm3.14-16.6c-.22,.24-.48,.44-.76,.59-.27,.15-.56,.26-.87,.31-.3,.04-.61,0-.89-.14-.28-.13-.53-.33-.73-.57-.4-.42-.64-.97-.66-1.55-.09-.73,.26-1.44,.89-1.81,.41-.28,.88-.45,1.38-.47,.34,0,.67,.02,1,.09,.24,.06,.46,.16,.66,.31,.45,.25,.74,.72,.75,1.23,.02,.41-.05,.82-.2,1.21-.14,.3-.33,.57-.57,.8Z"/><path class="b" d="M74.71,120.23c.04-.87,.19-1.72,.44-2.55,.25-.82,.59-1.61,1-2.36,.43-.77,.94-1.49,1.51-2.16,.56-.66,1.19-1.26,1.88-1.79,1.25-1.02,2.81-1.6,4.43-1.64,1.52-.14,2.94,.74,3.49,2.16,.22,.55,.32,1.15,.29,1.74,0,.64-.13,1.27-.38,1.86-.25,.57-.58,1.09-1,1.54-.44,.49-.95,.91-1.51,1.25-.63,.38-1.3,.69-2,.94-1.5,.52-3.07,.79-4.66,.8-.05,.21-.08,.42-.08,.64,0,.34,.02,.67,.09,1,.07,.33,.19,.65,.37,.94,.32,.58,.93,.94,1.59,.92,1.23,0,2.43-.35,3.47-1,.36-.2,.7-.45,1-.73,.16-.21,.39-.34,.65-.38,.21,.01,.4,.14,.49,.33,.14,.23,.21,.49,.2,.75,.01,.51-.15,1.01-.46,1.41-1.28,1.29-3.2,1.93-5.74,1.93-1.34,.06-2.65-.42-3.62-1.35-1.08-1.14-1.61-2.69-1.45-4.25Zm9-8.46c-1.07,0-2.11,.73-3.1,2.21-.89,1.39-1.56,2.91-2,4.5,1.66-.15,3.23-.85,4.44-2,.99-.78,1.62-1.93,1.74-3.18-.07-1.03-.43-1.53-1.13-1.53h.05Z"/><path class="b" d="M104.36,123.33c-.23-.67-.33-1.37-.29-2.08,.04-.99,.15-1.97,.34-2.94,.82-4.22,2.52-8.21,5-11.72,.19-.34,.53-.56,.92-.6,.34,0,.69,.06,1,.21,.29,.13,.57,.31,.82,.51,.6,.49,.79,.89,.59,1.19-1.44,2.31-2.62,4.4-3.54,6.26,2.21-.12,4.35-.89,6.13-2.21,1.77-1.13,2.86-3.08,2.9-5.18,.08-1.27-.8-2.41-2.06-2.64-.49-.12-.99-.18-1.49-.17-.6,0-1.21,.06-1.8,.18-.6,.12-1.2,.28-1.78,.48-1.11,.41-2.16,.97-3.12,1.66-.21,.17-.46,.27-.73,.29-.26,0-.51-.07-.74-.18-.25-.11-.49-.25-.7-.43-.8-.68-.69-1.38,.34-2.1,1.99-1.2,4.24-1.89,6.56-2,.54-.05,1.26-.07,2.17-.07,.94,0,1.87,.16,2.77,.44,.83,.24,1.61,.65,2.28,1.2,1.08,1.01,1.66,2.44,1.58,3.92-.05,1.66-.69,3.25-1.8,4.48-1.15,1.4-2.59,2.53-4.23,3.31,.76,.31,1.41,.85,1.86,1.54,.41,.63,.61,1.38,.59,2.13-.01,.72-.16,1.44-.45,2.1-.28,.64-.66,1.22-1.13,1.73-.49,.53-1.05,.99-1.66,1.37-.63,.4-1.3,.74-2,1-1.38,.53-2.85,.8-4.33,.8-2.06-.04-3.39-.87-4-2.48Zm3.71-6.69c-.7,1.6-1.12,3.31-1.23,5.05-.06,.58,.13,1.16,.51,1.6,.4,.39,.94,.59,1.5,.56,.69,0,1.37-.15,2-.42,.67-.27,1.3-.65,1.86-1.12,1.18-.87,1.91-2.21,2-3.67,.11-1.14-.6-2.2-1.69-2.55-.36-.14-.74-.22-1.12-.26-.68,.05-1.35,.18-2,.37l-1.83,.44Z"/><path class="b" d="M128.53,122.73c.26,0,.4,.17,.4,.52-.03,.54-.26,1.04-.63,1.43-.62,.71-1.53,1.11-2.47,1.07-1.04,.09-2.02-.49-2.44-1.44-.17-.39-.25-.81-.24-1.23,0-.54,.09-1.08,.25-1.6,.17-.59,.38-1.21,.63-1.86,.25-.64,.52-1.3,.82-2l.81-1.93c.44-.9,.74-1.86,.89-2.85,.03-.31-.02-.62-.15-.91-.08-.13-.19-.25-.31-.35l-.31-.21c-.11-.09-.17-.24-.15-.38,0-.19,.08-.37,.21-.51,.15-.17,.34-.32,.54-.43,.5-.24,1.05-.36,1.61-.35,1.5,0,2.25,.39,2.25,1.18-.04,1.09-.28,2.16-.72,3.15-.48,1.18-.89,2.13-1.22,2.86l-.92,2.11c-.53,1.05-.87,2.19-1,3.36-.05,.33,.18,.63,.51,.68,.05,0,.11,0,.16,0,.34,.02,.68-.04,1-.17,.15-.08,.31-.13,.48-.14Zm3.14-16.6c-.22,.24-.48,.44-.77,.59-.28,.15-.59,.24-.9,.27-.31,.04-.62,0-.9-.14-.8-.42-1.32-1.22-1.39-2.12-.03-.41,.06-.81,.26-1.17,.17-.25,.38-.47,.63-.64,.41-.28,.89-.45,1.39-.47,.34,0,.67,.02,1,.09,.24,.06,.47,.16,.67,.31,.45,.25,.74,.72,.75,1.23,.01,.41-.06,.83-.21,1.21-.13,.31-.31,.59-.53,.84Z"/><path class="b" d="M136.16,124.55c-.44-.44-.78-.97-1-1.55-.26-.72-.38-1.47-.38-2.23,0-.88,.1-1.76,.32-2.61,.22-.88,.53-1.74,.93-2.55,.4-.81,.89-1.58,1.46-2.29,.54-.7,1.17-1.33,1.87-1.87,1.31-1.08,2.95-1.69,4.65-1.72,1.89-.14,3.64,.99,4.28,2.77,.54,1.57,.57,3.27,.09,4.86-.43,1.76-1.24,3.4-2.36,4.82-1.03,1.38-2.41,2.45-4,3.11-.73,.3-1.5,.45-2.29,.46-.68,0-1.35-.09-2-.29-.59-.18-1.12-.49-1.57-.91Zm2.92-7.43c-.31,.75-.55,1.53-.72,2.33-.18,.74-.26,1.5-.26,2.26-.02,.57,.09,1.15,.33,1.67,.18,.38,.58,.62,1,.61,.5-.01,.99-.18,1.39-.49,.5-.37,.95-.8,1.33-1.28,.46-.58,.86-1.19,1.21-1.84,.38-.7,.72-1.43,1-2.17,.58-1.39,.89-2.88,.91-4.39,0-1.12-.23-1.84-.69-2.14-.23-.14-.51-.21-.78-.19-.42,.03-.81,.19-1.14,.45-.48,.35-.91,.76-1.29,1.22-.46,.56-.88,1.17-1.24,1.8-.4,.69-.75,1.42-1.05,2.16Z"/><path class="b" d="M164.79,112.63c-.6,0-1.68,.85-3.25,2.57-1.18,1.34-2,2.35-2.56,3l-1.38,1.75c-.6,1.12-1.06,2.06-1.4,2.8l-.83,1.78c-.15,.33-.33,.65-.56,.93-.16,.18-.4,.28-.64,.27-.27,0-.53-.05-.78-.15-.24-.08-.46-.21-.65-.37-.35-.25-.57-.65-.59-1.08,.06-.32,.18-.62,.34-.9l.58-1.24c.19-.37,.4-.84,.65-1.41l.86-2.1c1.2-3,1.81-5,1.81-5.84,.03-.4-.15-.8-.46-1.05l-.31-.21c-.11-.09-.17-.24-.15-.38,0-.19,.08-.37,.2-.51,.15-.18,.34-.32,.55-.43,.43-.22,.9-.34,1.38-.35,.37-.01,.74,.04,1.1,.15,.26,.09,.49,.23,.69,.42,.35,.27,.56,.68,.58,1.12,0,.39-.05,.79-.15,1.17-.11,.4-.23,.8-.38,1.19-.16,.41-.32,.8-.49,1.18-.41,.88-.67,1.41-.76,1.61s-.13,.28-.09,.23c1.87-2.43,3-3.86,3.38-4.3,.55-.68,1.17-1.31,1.84-1.87,.65-.54,1.45-.86,2.29-.9,.64-.03,1.27,.21,1.72,.67,.44,.48,.68,1.12,.65,1.78-.03,.78-.2,1.55-.5,2.27-.32,.87-.54,1.48-.65,1.82l2.25-3,1.26-1.5c.55-.68,1.23-1.25,2-1.67,.43-.23,.91-.37,1.4-.4,.37,0,.73,.07,1.07,.2,.34,.12,.65,.31,.9,.57,.53,.53,.82,1.25,.78,2-.01,.85-.2,1.68-.55,2.45-.37,.84-.69,1.53-1,2.06s-.55,1.08-.8,1.62c-.6,1.12-.98,2.35-1.12,3.62,0,.55,.22,.83,.67,.83,.41,0,.81-.09,1.18-.28,.21-.13,.44-.22,.68-.28,.16-.02,.3,.1,.32,.26,0,.02,0,.05,0,.07-.02,.95-.55,1.82-1.39,2.28-.5,.37-1.09,.59-1.71,.63-.42,.02-.85-.05-1.25-.19-.33-.12-.62-.32-.86-.58-.57-.59-.88-1.39-.86-2.22-.01-.83,.1-1.66,.34-2.45,.22-.74,.48-1.46,.79-2.17,.31-.7,.62-1.35,.93-1.93s.55-1.06,.72-1.41c.26-.49,.43-1.03,.49-1.58,0-.39-.21-.59-.63-.59s-1.55,.91-3,2.74c-1.08,1.42-1.83,2.44-2.25,3.07l-1.06,1.53c-.59,1.12-1,2.06-1.36,2.8l-.78,1.78c-.14,.33-.31,.64-.51,.93-.14,.18-.37,.28-.6,.27-.25,0-.5-.04-.74-.12-.22-.08-.43-.19-.62-.33-.34-.2-.56-.55-.6-.94,.03-.47,.14-.93,.33-1.36,.22-.58,.49-1.23,.82-1.94l2.15-4.54c.54-1.01,.92-2.09,1.15-3.21,.05-.42-.16-.64-.58-.64Zm1.51,4.32h0s0-.01,0,0h0Z"/><path class="b" d="M181.32,120.23c.04-.87,.19-1.72,.45-2.55,.25-.82,.58-1.61,1-2.36,.43-.77,.94-1.49,1.51-2.16,.56-.66,1.19-1.26,1.88-1.79,1.25-1.02,2.81-1.6,4.43-1.64,1.52-.14,2.95,.74,3.5,2.16,.21,.55,.31,1.15,.29,1.74,0,.64-.14,1.27-.39,1.86-.24,.57-.58,1.09-1,1.54-.46,.48-.98,.91-1.55,1.25-.63,.38-1.3,.7-2,.94-1.5,.52-3.07,.79-4.66,.8-.05,.21-.07,.42-.07,.64,0,.34,.02,.67,.09,1,.06,.33,.19,.65,.37,.94,.31,.58,.93,.94,1.59,.92,1.22,0,2.42-.35,3.46-1,.36-.2,.7-.45,1-.73,.16-.21,.39-.34,.65-.38,.21,.02,.39,.14,.48,.33,.14,.22,.21,.48,.21,.75,.01,.51-.15,1.01-.46,1.41-1.29,1.29-3.2,1.93-5.75,1.93-1.34,.06-2.65-.43-3.62-1.35-1.07-1.14-1.58-2.7-1.41-4.25Zm8.95-8.46c-1.07,0-2.1,.73-3.09,2.21-.88,1.39-1.56,2.91-2,4.5,1.67-.15,3.23-.85,4.45-2,.99-.78,1.61-1.93,1.73-3.18-.03-1.03-.38-1.53-1.09-1.53h0Z"/><path class="b" d="M207.25,121.58c.3,0,.45,.2,.45,.6,0,.36-.11,.71-.31,1-.38,.7-.96,1.29-1.65,1.69-.84,.57-1.83,.88-2.84,.9-1.45,.14-2.78-.8-3.13-2.21-.52-1.75,.26-5.45,2.35-11.11-1.18-.11-1.82-.31-1.92-.62-.02-.1-.02-.2,0-.3,.01-.13,.06-.26,.14-.37,.11-.15,.24-.29,.38-.41,.3-.28,.68-.44,1.09-.45h1.21c1.1-2.58,1.89-4.06,2.36-4.42,.22-.16,.48-.24,.75-.24,.23,0,.47,.03,.69,.11,.18,.07,.35,.17,.49,.3,.3,.25,.47,.61,.49,1,0,.25-.07,.49-.18,.71l-1.14,2.46h3.5c.3,0,.44,.11,.44,.32,0,1.33-1.59,2-4.78,2h-.12l-1.05,2.7c-.91,2.13-1.51,4.39-1.76,6.7-.02,.3,.07,.6,.25,.84,.25,.23,.58,.34,.92,.3,.42,0,.83-.07,1.22-.23,.35-.14,.68-.31,1-.52l.71-.51c.12-.12,.27-.2,.44-.24Z"/><path class="b" d="M214.62,123.13c1.53-.54,3.13-.83,4.75-.86,.83-.06,1.65,.24,2.26,.81,.5,.54,.76,1.26,.72,2,0,.18-.06,.36-.19,.49-.13,.13-.31,.2-.49,.19-.22,0-.44-.07-.64-.17l-.78-.37c-2.06-.87-4.39-.78-6.38,.23-.25,.12-.51,.22-.77,.29-.24,.05-.5,.01-.72-.1-.27-.13-.52-.3-.75-.49-.58-.52-.78-1-.61-1.53,.21-.58,.5-1.14,.85-1.65,.41-.63,.87-1.22,1.36-1.79,.51-.59,1.06-1.18,1.65-1.75,1.57-1.46,2.7-2.48,3.39-3.06,1.6-1.36,2.57-2.21,2.92-2.53,.26-.24,.48-.51,.67-.81-1.13,.47-2.33,.75-3.55,.85-.31,.04-.63,.06-.94,.06-.79,.07-1.58-.13-2.24-.57-.47-.43-.72-1.06-.67-1.7-.01-.25,.06-.5,.2-.7,.11-.15,.28-.25,.47-.25,.24,.01,.48,.07,.7,.16,.29,.11,.65,.23,1.07,.36,.93,.32,1.9,.5,2.88,.52,.58,.02,1.16-.02,1.73-.12,.33-.08,.62-.17,.88-.26l.7-.28c.2-.08,.42-.12,.64-.12,.21,0,.42,.07,.58,.21,.18,.14,.33,.31,.47,.49,.28,.36,.44,.8,.46,1.26-.06,.54-.29,1.05-.65,1.45-.5,.64-1.05,1.24-1.65,1.79-.68,.63-1.42,1.28-2.24,1.94l-2.42,2c-1.44,1.12-2.67,2.48-3.66,4.01Zm-.2,.41h0Z"/><path class="b" d="M236.8,122.25c-1.55,2.33-3.28,3.5-5.17,3.5-1.66,.04-3.1-1.11-3.45-2.73-.22-.75-.32-1.52-.3-2.3,0-.93,.13-1.85,.39-2.74,.25-.9,.61-1.77,1.06-2.59,.44-.81,.98-1.57,1.59-2.27,.58-.66,1.24-1.26,1.95-1.78,1.23-.99,2.75-1.55,4.33-1.61,1.34-.06,2.57,.75,3.06,2,.12-.13,.24-.26,.34-.41,.1-.14,.22-.27,.34-.39,.17-.22,.42-.36,.7-.4,.21,0,.42,.04,.62,.11,.22,.07,.44,.17,.64,.29,.5,.3,.69,.57,.57,.83-.54,1.17-1.01,2.37-1.41,3.59l-2.27,7.23c-1.79,5.49-4.06,9.04-6.81,10.64-.57,.37-1.21,.63-1.88,.74-.38,.07-.77,.07-1.15,0-.22-.05-.43-.14-.63-.26-.4-.26-.6-.48-.6-.69,0-.36,.24-.58,.71-.66,.53-.1,1.04-.29,1.5-.57,.53-.32,1.03-.68,1.48-1.1,1.94-1.77,3.4-4.58,4.39-8.43Zm-4.59-5.32c-.27,.74-.49,1.5-.64,2.27-.13,.62-.21,1.25-.23,1.89,0,.37,.01,.75,.05,1.12,.02,.23,.08,.46,.18,.67,.14,.38,.5,.64,.91,.65,.43-.01,.84-.16,1.18-.43,.45-.34,.86-.72,1.22-1.15,.47-.55,.9-1.13,1.29-1.74,.45-.69,.86-1.4,1.23-2.14,.8-1.54,1.41-3.17,1.81-4.86-.08-.34-.27-.64-.53-.87-.39-.47-.96-.78-1.57-.85-.5,.01-.99,.16-1.41,.44-.51,.32-.96,.72-1.35,1.18-.45,.53-.85,1.11-1.18,1.73-.37,.67-.7,1.37-.96,2.09Z"/><path class="b" d="M246.86,120.23c.04-.87,.19-1.72,.45-2.55,.25-.82,.58-1.61,1-2.36,.43-.77,.94-1.49,1.51-2.16,.56-.66,1.18-1.26,1.87-1.79,1.26-1.02,2.82-1.6,4.44-1.64,1.52-.14,2.94,.74,3.49,2.16,.21,.55,.31,1.15,.29,1.74,0,.64-.13,1.27-.38,1.86-.25,.57-.58,1.09-1,1.54-.46,.49-.98,.91-1.55,1.25-.62,.38-1.27,.69-1.95,.94-1.5,.52-3.07,.79-4.66,.8-.06,.21-.08,.42-.08,.64,0,.34,.02,.67,.09,1,.06,.33,.19,.65,.37,.94,.32,.58,.93,.94,1.59,.92,1.23,0,2.43-.35,3.47-1,.36-.2,.7-.45,1-.73,.16-.21,.39-.34,.65-.38,.21,.01,.4,.14,.49,.33,.13,.23,.2,.49,.2,.75,.01,.51-.15,1.01-.46,1.41-1.28,1.29-3.2,1.93-5.75,1.93-1.34,.06-2.64-.43-3.61-1.35-1.09-1.13-1.63-2.69-1.47-4.25Zm9-8.46c-1.08,0-2.11,.73-3.1,2.21-.89,1.39-1.56,2.91-2,4.5,1.66-.15,3.23-.85,4.44-2,.99-.78,1.62-1.93,1.74-3.18-.08-1.03-.42-1.53-1.08-1.53h0Z"/><path class="b" d="M263.94,125.23c-.19-.14-.36-.32-.49-.52-.11-.14-.18-.31-.2-.49,0-.17,.02-.34,.08-.5,.07-.2,.16-.45,.27-.73,2.08-5.13,3.12-8.57,3.13-10.33,0-.41-.18-.8-.51-1.05l-.31-.21c-.1-.1-.15-.24-.14-.38,0-.19,.07-.37,.19-.51,.15-.17,.32-.32,.52-.43,.42-.23,.88-.35,1.36-.35,.37-.01,.74,.04,1.09,.15,.25,.09,.47,.24,.66,.42,.35,.28,.57,.71,.59,1.16,0,.42-.04,.83-.13,1.24-.1,.42-.22,.83-.35,1.24s-.27,.78-.4,1.15-.22,.63-.26,.8c-.07,.22-.1,.45-.09,.68,.2-.16,.36-.38,.44-.63l.6-1.14c.88-1.88,2.21-3.52,3.87-4.77,.4-.22,.86-.33,1.32-.32,.48-.02,.94,.18,1.25,.54,.3,.33,.48,.76,.5,1.21,.02,.37-.01,.73-.09,1.09-.08,.29-.19,.57-.35,.82-.21,.49-.68,.82-1.22,.86-.14,0-.27-.05-.37-.14l-.34-.29c-.27-.27-.62-.43-1-.44-.44,.06-.84,.28-1.14,.61-.5,.49-.97,1.01-1.38,1.58-1.66,2.19-3.01,4.6-4,7.17l-.67,1.78c-.12,.33-.27,.64-.46,.94-.14,.19-.36,.3-.59,.29-.27,0-.54-.05-.79-.15-.21-.09-.41-.21-.59-.35Z"/><path class="b" d="M279.18,120.23c.04-.87,.19-1.72,.45-2.55,.25-.82,.58-1.61,1-2.36,.43-.77,.93-1.49,1.51-2.16,.56-.66,1.18-1.26,1.87-1.79,1.26-1.02,2.81-1.6,4.43-1.64,1.52-.15,2.95,.74,3.5,2.16,.21,.55,.31,1.15,.29,1.74,0,.64-.13,1.27-.38,1.86-.25,.57-.58,1.09-1,1.54-.46,.49-.98,.91-1.55,1.25-.63,.38-1.3,.7-2,.94-1.5,.52-3.07,.79-4.66,.8-.05,.21-.07,.42-.07,.64,0,.34,.02,.67,.09,1,.06,.33,.19,.65,.37,.94,.32,.58,.93,.94,1.59,.92,1.23,0,2.43-.35,3.47-1,.36-.2,.7-.45,1-.73,.16-.21,.39-.34,.65-.38,.21,.01,.39,.14,.48,.33,.14,.22,.21,.48,.21,.75,.01,.51-.15,1.01-.46,1.41-1.29,1.29-3.2,1.93-5.75,1.93-1.34,.06-2.65-.43-3.62-1.35-1.07-1.14-1.59-2.69-1.42-4.25Zm9-8.46c-1.08,0-2.11,.73-3.1,2.21-.89,1.39-1.56,2.91-2,4.5,1.66-.15,3.23-.85,4.44-2,.99-.78,1.62-1.93,1.73-3.18-.06-1.03-.39-1.53-1.11-1.53h.04Z"/><path class="b" d="M301.33,122.73c.27,0,.4,.17,.4,.52-.03,.54-.26,1.04-.63,1.43-.62,.71-1.53,1.11-2.47,1.07-1.04,.09-2.01-.49-2.44-1.44-.17-.39-.25-.81-.24-1.23,0-.54,.09-1.08,.25-1.6,.17-.59,.38-1.21,.63-1.86,.25-.64,.52-1.3,.82-2l.81-1.93c.44-.9,.74-1.86,.89-2.85,.02-.31-.02-.62-.14-.91-.09-.13-.19-.25-.32-.35l-.3-.21c-.12-.09-.18-.23-.16-.38,0-.19,.08-.37,.21-.51,.15-.17,.34-.32,.54-.43,.5-.24,1.05-.36,1.61-.35,1.51,0,2.26,.39,2.26,1.18-.04,1.09-.28,2.16-.72,3.15-.48,1.18-.89,2.13-1.23,2.86l-.92,2.11c-.53,1.05-.86,2.19-1,3.36-.05,.33,.18,.63,.51,.68,.05,0,.11,0,.16,0,.34,.02,.68-.04,1-.17,.15-.08,.31-.13,.48-.14Zm3.14-16.6c-.22,.24-.48,.44-.76,.59-.28,.14-.59,.24-.91,.27-.3,.04-.61,0-.89-.14-.28-.13-.53-.33-.73-.57-.4-.42-.64-.97-.66-1.55-.09-.73,.26-1.44,.89-1.81,.41-.28,.88-.45,1.38-.47,.34,0,.67,.02,1,.09,.24,.06,.46,.16,.66,.31,.45,.25,.74,.72,.75,1.23,.02,.41-.05,.82-.2,1.21-.13,.31-.31,.59-.53,.84h0Z"/><path class="b" d="M324.67,122.73c.26,0,.39,.17,.39,.52-.03,.54-.25,1.04-.62,1.43-.62,.71-1.53,1.11-2.47,1.07-1.04,.09-2.02-.49-2.44-1.44-.17-.39-.26-.81-.25-1.23,.01-.54,.1-1.08,.26-1.6,.17-.59,.38-1.21,.63-1.86,.25-.64,.52-1.3,.82-2l.81-1.93c.44-.9,.74-1.86,.89-2.85,.03-.31-.02-.62-.15-.91-.08-.13-.19-.25-.31-.35l-.31-.21c-.11-.09-.17-.24-.15-.38,0-.19,.08-.37,.2-.51,.15-.18,.34-.32,.55-.43,.5-.24,1.05-.36,1.61-.35,1.5,0,2.25,.39,2.25,1.18-.04,1.09-.28,2.16-.72,3.15-.48,1.18-.89,2.13-1.22,2.86l-.92,2.11c-.53,1.05-.87,2.19-1,3.36-.05,.33,.18,.63,.51,.68,.05,0,.11,0,.16,0,.34,.02,.68-.04,1-.17,.15-.08,.31-.13,.48-.14Zm3.19-16.6c-.22,.24-.48,.44-.77,.59-.28,.14-.59,.24-.9,.27-.31,.04-.62,0-.9-.14-.81-.41-1.35-1.21-1.43-2.12-.03-.41,.06-.81,.26-1.17,.17-.25,.38-.47,.63-.64,.41-.28,.89-.45,1.39-.47,.34,0,.67,.02,1,.09,.24,.06,.47,.16,.67,.31,.45,.25,.74,.72,.75,1.23,.01,.41-.06,.83-.21,1.21-.11,.31-.28,.59-.49,.84Z"/><path class="b" d="M342.43,112.63c-.6,0-1.68,.85-3.25,2.57-1.18,1.34-2,2.35-2.56,3l-1.38,1.75c-.59,1.12-1.06,2.06-1.4,2.8l-.83,1.78c-.15,.33-.33,.64-.55,.93-.17,.18-.4,.28-.65,.27-.27,0-.53-.05-.78-.15-.24-.08-.46-.21-.65-.37-.35-.25-.56-.65-.58-1.08,.06-.32,.17-.62,.33-.9l.59-1.24c.18-.37,.39-.84,.64-1.41l.86-2.1c1.2-3,1.81-5,1.81-5.84,.03-.4-.15-.8-.46-1.05l-.31-.21c-.11-.09-.17-.24-.15-.38,0-.19,.08-.37,.2-.51,.15-.18,.34-.32,.55-.43,.43-.22,.91-.34,1.39-.35,.37-.01,.74,.04,1.09,.15,.26,.09,.49,.23,.69,.42,.35,.27,.56,.68,.58,1.12,0,.39-.05,.79-.15,1.17-.11,.4-.23,.8-.38,1.19-.16,.41-.32,.8-.49,1.18-.41,.88-.67,1.41-.76,1.61s-.13,.28-.09,.23c1.87-2.43,3-3.86,3.38-4.3,.55-.68,1.17-1.31,1.84-1.87,.65-.54,1.45-.86,2.29-.9,.64-.03,1.27,.21,1.72,.67,.44,.48,.68,1.12,.65,1.78-.03,.78-.2,1.55-.49,2.27-.33,.87-.55,1.48-.66,1.82l2.25-3,1.26-1.5c.55-.68,1.23-1.25,2-1.67,.43-.23,.91-.37,1.4-.4,.37,0,.74,.07,1.08,.2,.34,.12,.64,.31,.89,.57,.54,.52,.82,1.25,.79,2-.01,.85-.2,1.68-.56,2.45-.36,.84-.69,1.53-1,2.06s-.54,1.08-.8,1.62c-.6,1.12-.98,2.35-1.12,3.62,0,.55,.23,.83,.68,.83,.41,0,.81-.09,1.17-.28,.21-.13,.44-.22,.68-.28,.16-.02,.3,.1,.32,.26,0,.02,0,.05,0,.07-.02,.95-.55,1.82-1.39,2.28-.5,.37-1.09,.59-1.71,.63-.42,.02-.85-.05-1.25-.19-.33-.13-.62-.32-.86-.58-.57-.59-.88-1.39-.86-2.22-.01-.83,.1-1.66,.34-2.45,.22-.74,.49-1.47,.8-2.17,.3-.7,.61-1.35,.92-1.93s.55-1.06,.72-1.41c.26-.49,.43-1.03,.49-1.58,0-.39-.21-.59-.63-.59s-1.54,.91-3,2.74c-1.08,1.42-1.83,2.44-2.25,3.07l-.97,1.57c-.59,1.12-1,2.06-1.36,2.8l-.78,1.78c-.14,.33-.31,.64-.51,.93-.14,.18-.37,.28-.6,.27-.25,0-.5-.04-.74-.12-.22-.08-.43-.19-.62-.33-.34-.2-.56-.55-.6-.94,.03-.47,.14-.93,.33-1.36,.22-.58,.49-1.23,.82-1.94l2.15-4.54c.54-1.01,.92-2.09,1.15-3.21-.04-.46-.24-.68-.67-.68Zm1.52,4.32h0Z"/><path class="b" d="M371.45,123.33c-.22-.67-.32-1.37-.29-2.08,.04-.99,.16-1.97,.34-2.94,.82-4.22,2.52-8.21,5-11.72,.2-.34,.54-.56,.93-.6,.33,0,.65,.07,.95,.21,.29,.14,.57,.31,.82,.51,.59,.49,.78,.89,.58,1.19-1.44,2.31-2.62,4.4-3.54,6.26,2.21-.12,4.35-.89,6.13-2.21,1.77-1.13,2.86-3.08,2.9-5.18,.08-1.27-.8-2.41-2.06-2.64-.49-.12-.99-.18-1.49-.17-.6,0-1.2,.06-1.79,.18-.61,.12-1.21,.28-1.79,.48-1.11,.41-2.15,.97-3.11,1.66-.21,.17-.47,.27-.74,.29-.25,0-.5-.07-.73-.18-.26-.11-.5-.25-.71-.43-.8-.68-.68-1.38,.34-2.1,1.99-1.2,4.24-1.89,6.56-2,.54-.05,1.27-.07,2.17-.07,.94,0,1.87,.16,2.77,.44,.83,.24,1.61,.65,2.28,1.2,1.08,1.01,1.66,2.44,1.58,3.92-.05,1.66-.69,3.24-1.79,4.48-1.15,1.4-2.6,2.53-4.23,3.31,.76,.32,1.41,.85,1.86,1.54,.41,.64,.61,1.38,.59,2.13-.01,.72-.16,1.44-.45,2.1-.28,.64-.67,1.22-1.14,1.73-.49,.53-1.04,.99-1.65,1.37-.63,.4-1.3,.74-2,1-1.38,.52-2.84,.8-4.32,.8-2.05-.04-3.37-.87-3.97-2.48Zm3.71-6.69c-.7,1.6-1.11,3.31-1.23,5.05-.05,.58,.14,1.16,.52,1.6,.4,.38,.94,.59,1.49,.56,.69,0,1.37-.15,2-.42,.68-.27,1.3-.65,1.86-1.12,1.18-.86,1.91-2.21,2-3.67,.1-1.14-.59-2.2-1.68-2.55-.36-.13-.74-.22-1.12-.26-.68,.06-1.35,.18-2,.37l-1.84,.44Z"/><path class="b" d="M402.32,121.52c0,.94,.33,1.41,1,1.41,.39,.01,.78-.06,1.14-.22,.19-.1,.39-.17,.6-.21,.22,0,.32,.11,.32,.34-.04,.94-.56,1.8-1.38,2.27-.86,.65-1.98,.83-3,.49-.69-.27-1.22-.82-1.47-1.52-.14-.35-.22-.72-.23-1.09,0-.57,.05-1.13,.15-1.69-.72,1.68-1.96,3.08-3.54,4-.56,.28-1.17,.43-1.79,.43-.57,.02-1.14-.12-1.65-.39-.47-.27-.88-.63-1.19-1.08-.69-1.07-1.01-2.35-.9-3.62,.08-1.89,.63-3.73,1.61-5.35,.87-1.57,2.07-2.94,3.52-4,1.13-.94,2.53-1.5,4-1.58,1.23,0,2.37,.64,3,1.7,.7-1.13,1.33-1.7,1.87-1.7,.46-.03,.92,.08,1.32,.32,.56,.41,.76,.77,.59,1.07-2.56,5.26-3.88,8.53-3.95,9.82-.02,.2-.02,.4-.02,.6Zm-8.51,.06c0,1.23,.39,1.84,1.18,1.84,.6,0,1.34-.51,2.22-1.53,1.47-1.82,2.63-3.88,3.42-6.08,.31-.78,.58-1.58,.8-2.39,0-.63-.33-1.21-.87-1.53-.26-.13-.54-.19-.83-.17-.45,.03-.89,.16-1.27,.4-.52,.3-.99,.66-1.41,1.09-.48,.49-.91,1.04-1.27,1.63-.39,.65-.73,1.34-1,2.05-.61,1.49-.92,3.08-.92,4.69h-.05Z"/><path class="b" d="M409.86,124.11c-.13-.37-.19-.77-.18-1.16,0-.49,.08-.98,.22-1.45,.16-.57,.35-1.13,.57-1.68,.24-.59,.49-1.18,.77-1.8l.83-1.84c1.06-2.36,1.45-3.76,1.18-4.2-.18-.24-.42-.44-.69-.58-.13-.08-.2-.23-.19-.38,0-.19,.09-.38,.23-.51,.16-.18,.36-.32,.57-.43,.47-.22,.98-.34,1.5-.35,.39-.02,.78,.04,1.15,.16,.24,.09,.45,.23,.63,.41,.32,.29,.5,.69,.51,1.12-.01,.46-.08,.92-.2,1.37-.13,.5-.31,1.05-.52,1.65s-.45,1.2-.71,1.83c-.7,1.66-1.18,2.75-1.42,3.29l-.57,1.18c-.25,.46-.41,.96-.48,1.48-.02,.21,.03,.43,.14,.61,.13,.13,.31,.2,.5,.18,.29-.02,.56-.12,.8-.28,.33-.22,.65-.47,.94-.74,.37-.33,.72-.69,1.05-1.06,.36-.41,.72-.83,1.07-1.27,.75-.9,1.42-1.87,2-2.89,2.21-4.07,3.38-6.2,3.51-6.38,.22-.36,.58-.6,1-.66,.3,0,.61,.03,.9,.11,.24,.07,.46,.18,.66,.33,.4,.3,.53,.63,.37,1s-.35,.87-.57,1.52c-1.95,5.63-3.21,9.14-3.78,10.53-.58,1.39-1.08,2.51-1.51,3.35-.46,.88-.96,1.73-1.51,2.55-.56,.83-1.18,1.61-1.85,2.35-1.49,1.59-2.89,2.45-4.2,2.56-.41,.06-.83-.02-1.2-.22-.51-.3-.76-.6-.76-.87s.23-.47,.69-.58c.52-.12,1.01-.34,1.45-.64,.51-.33,.99-.71,1.43-1.13,1.29-1.2,2.36-2.62,3.14-4.2,.6-1.22,1.11-2.48,1.53-3.77l1.2-3.65c-.3,.36-.62,.78-1,1.26l-1.1,1.47c-.71,.94-1.51,1.81-2.4,2.59-.88,.83-2.02,1.35-3.23,1.46-1.1,.07-2.11-.6-2.47-1.64Z"/><path class="b" d="M429.61,120.23c.04-.87,.19-1.72,.44-2.55,.25-.82,.59-1.61,1-2.36,.43-.77,.94-1.49,1.51-2.16,.56-.66,1.19-1.26,1.88-1.79,1.25-1.02,2.81-1.6,4.42-1.64,1.52-.14,2.95,.74,3.5,2.16,.21,.55,.31,1.15,.29,1.74,0,.64-.14,1.27-.39,1.86-.24,.57-.58,1.09-1,1.54-.45,.49-.97,.91-1.54,1.25-.63,.38-1.3,.7-2,.94-1.5,.52-3.07,.79-4.66,.8-.05,.21-.08,.42-.08,.64-.01,.34,.02,.67,.1,1,.06,.33,.19,.65,.36,.94,.32,.58,.94,.94,1.6,.92,1.22,0,2.42-.35,3.46-1,.36-.2,.7-.45,1-.73,.16-.21,.39-.34,.65-.38,.21,.02,.39,.14,.48,.33,.14,.22,.21,.48,.21,.75,0,.51-.15,1-.46,1.41-1.29,1.29-3.21,1.93-5.75,1.93-1.34,.06-2.65-.43-3.62-1.35-1.06-1.14-1.58-2.7-1.4-4.25Zm8.95-8.46c-1.07,0-2.1,.73-3.09,2.21-.89,1.39-1.56,2.91-2,4.5,1.67-.15,3.23-.85,4.45-2,.99-.78,1.61-1.93,1.73-3.18-.03-1.03-.38-1.53-1.09-1.53h0Z"/><path class="b" d="M446.68,125.23c-.19-.15-.36-.32-.49-.52-.11-.14-.18-.31-.2-.49,0-.17,.03-.34,.09-.5,.08-.25,.17-.49,.27-.73,2.08-5.13,3.12-8.57,3.12-10.33,0-.41-.18-.8-.5-1.05l-.31-.21c-.1-.1-.16-.24-.15-.38,0-.19,.07-.37,.2-.51,.14-.18,.32-.32,.52-.43,.41-.23,.88-.35,1.35-.35,.37-.01,.74,.04,1.09,.15,.25,.09,.48,.23,.67,.42,.35,.29,.56,.71,.59,1.16,0,.42-.04,.83-.14,1.24-.1,.42-.21,.83-.34,1.24l-.4,1.15c-.1,.26-.19,.53-.26,.8-.07,.22-.1,.45-.1,.68,.21-.16,.37-.38,.45-.63l.6-1.14c.89-1.88,2.23-3.51,3.89-4.75,.41-.22,.87-.33,1.33-.32,.48-.02,.93,.18,1.25,.54,.3,.34,.47,.76,.5,1.21,.02,.37-.01,.73-.1,1.09-.07,.29-.19,.57-.34,.82-.22,.49-.69,.82-1.23,.86-.13,0-.26-.05-.36-.14l-.34-.29c-.27-.27-.62-.43-1-.44-.44,.06-.84,.28-1.13,.61-.51,.49-.97,1.01-1.39,1.58-1.66,2.19-3.01,4.61-4,7.17l-.68,1.78c-.12,.33-.27,.65-.46,.94-.13,.19-.36,.3-.59,.29-.27,0-.53-.05-.78-.15-.23-.09-.44-.22-.63-.37Z"/><path class="b" d="M466.86,123.84c-1.4,1.23-2.49,1.85-3.28,1.85-.77,.02-1.45-.49-1.65-1.23-.11-.25-.16-.53-.17-.8,0-.66,.1-1.31,.31-1.93,.21-.62,.42-1.2,.63-1.75l1.34-3.47c.39-.98,.7-1.98,.95-3,.14-.37,.14-.77,0-1.14-.14-.2-.31-.37-.5-.52l-.54-.4c-.15-.1-.25-.27-.25-.45,.01-.19,.09-.37,.22-.51,.17-.18,.37-.32,.59-.43,.48-.23,1-.35,1.53-.35,.42-.02,.84,.04,1.24,.16,.27,.09,.53,.23,.75,.41,.36,.3,.56,.74,.56,1.21,0,.54-.09,1.09-.24,1.61-.15,.59-.35,1.22-.59,1.88s-.51,1.36-.81,2.07l-.84,2.12c-.54,1.24-.96,2.54-1.25,3.86,1-.33,2.23-1.5,3.81-3.53,1.81-2.35,3.35-4.89,4.59-7.58,.09-.29,.3-.54,.57-.69,.44-.19,.91-.27,1.39-.23,.89,0,1.35,.3,1.38,.82,.01,.37-.07,.73-.25,1.05l-.47,1-.6,1.23c-1.02,1.81-1.63,3.83-1.79,5.9-.1,.82,.22,1.64,.86,2.16,.22,.14,.49,.21,.75,.19,.42-.03,.83-.15,1.19-.36,.49-.26,.93-.6,1.32-1,.44-.45,.83-.94,1.17-1.47,.37-.56,.69-1.16,.95-1.78,.51-1.12,.8-2.33,.84-3.56,.11-1.38-.24-2.75-1-3.91-.22-.26-.15-.58,.2-.93,.49-.42,1.13-.63,1.78-.57,.98,.01,1.81,.71,2,1.67,.16,.61,.23,1.25,.21,1.88-.02,.95-.17,1.89-.45,2.8-.29,1.04-.69,2.05-1.2,3-.5,.94-1.08,1.83-1.75,2.65-.62,.77-1.32,1.49-2.07,2.13-1.17,1.13-2.71,1.81-4.33,1.93-2.28,0-3.41-1.47-3.41-4.42,0-.67,.06-1.34,.18-2-1.11,1.63-2.41,3.11-3.87,4.43Z"/><path class="b" d="M499.54,121.52c0,.94,.33,1.41,1,1.41,.39,.02,.78-.06,1.14-.22,.19-.11,.4-.18,.61-.21,.21,0,.32,.11,.32,.34-.04,.94-.56,1.8-1.38,2.27-.86,.65-1.98,.83-3,.49-.69-.27-1.22-.82-1.47-1.52-.14-.35-.22-.72-.23-1.09,0-.57,.06-1.13,.16-1.69-.72,1.68-1.96,3.08-3.54,4-.56,.28-1.17,.43-1.8,.43-.57,.01-1.14-.12-1.65-.39-.47-.27-.87-.64-1.18-1.08-.7-1.07-1.02-2.35-.91-3.62,.08-1.89,.64-3.73,1.61-5.35,.87-1.57,2.08-2.94,3.53-4,1.13-.94,2.53-1.5,4-1.58,1.23,0,2.38,.64,3,1.7,.71-1.13,1.33-1.7,1.87-1.7,.46-.03,.92,.08,1.32,.32,.56,.41,.76,.77,.6,1.07-2.57,5.26-3.88,8.53-4,9.82-.01,.2-.01,.4,0,.6Zm-8.5,.06c0,1.23,.39,1.84,1.17,1.84,.61,0,1.35-.51,2.23-1.53,1.94-2.52,3.37-5.4,4.21-8.47,0-.63-.33-1.21-.87-1.53-.25-.13-.54-.19-.82-.17-.45,.02-.89,.16-1.27,.4-.52,.29-1,.66-1.41,1.09-.49,.49-.91,1.04-1.28,1.63-.39,.65-.72,1.34-1,2.05-.61,1.49-.94,3.08-.96,4.69Z"/><path class="b" d="M507.86,125.03c-.28-.29-.49-.63-.63-1-.16-.46-.24-.95-.23-1.44,.03-.75,.15-1.49,.37-2.2,.25-.92,.57-2,1-3.14l1.29-3.82c1.48-4.01,2.52-8.17,3.09-12.4,.09-.86,.51-1.29,1.26-1.29,.41-.02,.82,.1,1.16,.34,.53,.32,.85,.89,.86,1.5-.04,.67-.14,1.34-.29,2-.17,.8-.4,1.66-.67,2.6s-.6,1.92-1,3l-2.12,6.23c-1.22,3.53-1.82,5.82-1.82,6.85,0,.55,.22,.83,.67,.83,.41,0,.81-.09,1.17-.28,.21-.13,.45-.22,.69-.28,.16-.02,.3,.1,.32,.26,0,.02,0,.05,0,.07-.03,.96-.56,1.82-1.4,2.28-.49,.38-1.09,.59-1.71,.63-.42,.02-.85-.05-1.25-.19-.29-.13-.55-.32-.76-.55Z"/><path class="b" d="M533.5,122.5c.22,0,.32,.11,.32,.34-.04,.94-.55,1.8-1.36,2.27-.49,.39-1.09,.61-1.71,.64-.43,.02-.87-.05-1.28-.19-.33-.13-.62-.32-.86-.58-.6-.7-.91-1.61-.86-2.53,.02-.34,.06-.67,.13-1-.6,.98-1.31,1.89-2.13,2.69-.93,.97-2.18,1.55-3.52,1.63-1.62,.13-3.1-.89-3.55-2.45-.23-.73-.33-1.5-.31-2.27,0-.93,.14-1.86,.41-2.76,.28-.93,.66-1.82,1.13-2.66,.48-.83,1.03-1.61,1.66-2.33,.6-.69,1.27-1.32,2-1.88,1.12-.97,2.52-1.55,4-1.67,1.15-.03,2.24,.52,2.9,1.47,1.77-6.09,3.1-9.69,4-10.78,.28-.39,.72-.64,1.2-.67,.59-.04,1.17,.18,1.58,.6,.1,.11,.16,.25,.17,.4-.04,.26-.12,.5-.25,.73-.16,.36-.4,.94-.72,1.73-.91,2.4-1.54,4.16-1.91,5.28-1,2.85-1.58,4.81-1.91,5.88l-.84,2.84c-.52,1.56-.89,3.17-1.09,4.81,0,.69,.25,1,.75,1,.38,.01,.76-.05,1.11-.18l.58-.28c.11-.06,.23-.09,.36-.08Zm-10.53,.95c1.05,0,2.25-1.03,3.62-3.08,1.42-2.11,2.44-4.47,3-6.95,0-.63-.33-1.21-.87-1.53-.26-.13-.55-.19-.84-.17-.46,.03-.91,.17-1.3,.41-.53,.29-1.02,.66-1.44,1.09-.49,.49-.93,1.03-1.3,1.62-.41,.63-.76,1.3-1.05,2-.63,1.4-.97,2.91-1,4.45,0,1.43,.39,2.16,1.18,2.16Z"/></svg>