<?xml version="1.0" standalone="no"?>
<!DOCTYPE svg PUBLIC "-//W3C//DTD SVG 20010904//EN"
 "http://www.w3.org/TR/2001/REC-SVG-20010904/DTD/svg10.dtd">
<svg version="1.0" xmlns="http://www.w3.org/2000/svg"
 width="4000.000000pt" height="1269.000000pt" viewBox="0 0 4000.000000 1269.000000"
 preserveAspectRatio="xMidYMid meet">

<g transform="translate(0.000000,1269.000000) scale(0.100000,-0.100000)"
fill="#000000" stroke="none">
<path d="M36537 6008 c-35 -32 -43 -49 -123 -255 -32 -82 -63 -163 -115 -296
-23 -60 -50 -112 -60 -117 -12 -7 -27 -6 -46 1 -48 19 -231 17 -286 -3 -182
-67 -314 -183 -396 -349 -61 -122 -88 -209 -102 -329 -8 -70 -11 -77 -47 -110
-22 -20 -65 -48 -95 -63 -47 -23 -69 -27 -140 -27 -71 0 -89 4 -118 23 -27 18
-35 30 -37 61 -3 36 28 189 62 306 8 25 19 65 26 90 7 25 18 63 25 85 7 22 25
81 40 130 52 170 85 246 153 353 139 219 175 334 136 432 -22 55 -60 80 -122
80 -51 0 -104 -27 -144 -73 -52 -61 -153 -334 -233 -627 -9 -36 -21 -76 -26
-90 -33 -99 -110 -446 -124 -562 -7 -57 -30 -87 -103 -137 -92 -61 -119 -71
-193 -71 -75 0 -113 11 -146 42 -27 25 -31 87 -9 145 8 21 26 72 41 113 29 83
30 86 74 183 17 38 31 71 31 73 0 3 13 33 29 67 47 102 91 208 91 221 0 23
-34 43 -94 55 -95 18 -105 16 -152 -36 l-43 -46 -61 26 c-53 23 -75 27 -164
27 -77 0 -116 -5 -161 -21 -184 -64 -322 -189 -414 -376 -59 -118 -83 -210
-84 -318 -1 -113 18 -173 75 -233 37 -37 122 -72 177 -72 120 0 316 134 391
268 23 40 42 52 54 33 3 -4 0 -33 -6 -64 -21 -101 17 -165 117 -198 60 -19
297 -17 357 4 73 26 134 56 154 78 24 27 38 24 68 -16 15 -19 46 -45 69 -58
38 -20 55 -22 192 -22 168 1 208 10 308 71 l58 36 42 -45 c102 -109 228 -113
372 -12 65 46 162 145 211 214 16 22 36 40 44 38 16 -3 16 -10 4 -108 -9 -80
19 -129 95 -166 52 -24 66 -26 191 -26 176 0 255 24 355 107 35 30 39 37 42
92 6 92 -5 97 -73 35 -85 -78 -157 -111 -243 -111 -70 0 -110 11 -143 38 -25
21 -24 134 1 227 67 249 164 517 341 940 120 287 121 290 110 321 -13 33 -66
54 -138 54 -52 0 -63 -4 -95 -32z m-376 -838 c29 -16 23 -51 -23 -147 -97
-203 -249 -440 -313 -489 -21 -16 -53 -28 -79 -31 -38 -5 -48 -2 -70 20 -34
34 -41 69 -26 136 17 77 97 243 153 318 67 90 135 140 257 191 33 14 77 15
101 2z m-1954 -32 c13 -12 23 -26 23 -31 0 -13 -92 -194 -125 -246 -14 -22
-25 -43 -25 -46 0 -9 -79 -114 -149 -198 -66 -79 -139 -137 -174 -137 -28 0
-74 30 -86 57 -19 41 -13 137 12 206 68 187 202 339 352 400 61 24 143 22 172
-5z"/>
<path d="M27040 6004 c-30 -8 -64 -18 -75 -23 -118 -50 -124 -50 -147 -4 -12
24 -19 28 -53 26 -55 -4 -131 -33 -156 -59 -13 -14 -24 -46 -31 -90 -6 -38
-15 -81 -20 -95 -5 -14 -62 -80 -126 -145 -194 -197 -416 -488 -513 -674 -78
-148 -149 -377 -149 -479 0 -51 25 -127 56 -167 29 -40 116 -84 163 -84 74 0
202 66 267 136 36 38 57 41 124 18 165 -59 317 -72 423 -39 252 80 367 220
367 446 0 125 -22 203 -87 307 -18 29 -33 61 -33 71 0 12 33 39 98 81 131 85
211 164 253 248 33 65 34 70 33 192 0 120 -1 128 -32 192 -24 50 -44 75 -75
96 -87 60 -178 74 -287 46z m63 -178 c92 -39 118 -156 63 -288 -21 -49 -123
-176 -178 -221 -53 -43 -75 -45 -143 -13 -27 14 -69 30 -93 37 -62 18 -65 31
-36 135 26 90 35 126 54 201 6 23 22 55 35 71 23 28 106 75 150 85 42 10 117
6 148 -7z m-649 -455 c14 -22 -75 -294 -167 -511 -121 -287 -212 -430 -274
-430 -39 0 -57 41 -49 115 10 95 21 125 129 345 84 172 182 325 270 424 55 63
79 77 91 57z m421 -284 c51 -79 71 -239 40 -328 -47 -135 -109 -200 -224 -235
-71 -21 -199 -18 -238 6 -18 11 -33 25 -33 30 0 6 17 48 39 93 52 110 94 214
129 320 39 116 48 125 131 130 36 2 83 4 103 5 29 2 41 -3 53 -21z"/>
<path d="M21062 5999 c-47 -14 -83 -76 -90 -154 -4 -57 -2 -64 24 -94 87 -95
254 -10 254 131 0 101 -77 149 -188 117z"/>
<path d="M22730 5997 c-69 -24 -116 -175 -74 -236 19 -27 71 -51 111 -51 42 0
94 32 125 76 33 47 39 134 12 173 -32 46 -105 62 -174 38z"/>
<path d="M9490 5975 c-25 -8 -70 -23 -100 -34 -73 -28 -87 -27 -106 10 -16 31
-17 31 -71 25 -59 -7 -118 -32 -144 -62 -18 -20 -39 -105 -39 -156 0 -26 -18
-50 -113 -147 -279 -286 -494 -581 -581 -796 -15 -38 -32 -79 -36 -90 -35 -84
-60 -204 -60 -290 0 -127 56 -209 165 -240 49 -14 63 -13 145 11 40 12 101 53
157 105 28 27 57 49 64 49 12 0 154 -44 199 -62 14 -5 66 -12 115 -15 104 -6
194 12 289 58 149 74 216 153 251 298 32 130 2 289 -78 414 -20 32 -37 64 -37
72 0 7 51 47 113 88 130 86 207 163 245 244 25 54 27 67 27 193 -1 121 -3 140
-24 183 -30 61 -98 120 -161 141 -57 19 -156 19 -220 1z m62 -167 c108 -32
140 -183 67 -315 -54 -97 -197 -243 -238 -243 -9 0 -38 11 -66 24 -27 13 -72
33 -100 43 -47 18 -50 21 -49 54 1 19 8 60 17 90 9 30 25 91 36 136 27 111 41
134 100 167 97 52 164 65 233 44z m-635 -464 c17 -44 -164 -534 -274 -744 -71
-135 -136 -205 -180 -194 -58 15 -53 123 14 288 88 220 237 472 354 600 64 69
76 76 86 50z m425 -286 c85 -155 62 -365 -52 -479 -83 -82 -254 -123 -355 -84
-58 21 -58 36 -4 152 61 130 83 187 130 327 32 98 43 104 176 105 86 1 93 -1
105 -21z"/>
<path d="M10314 5970 c-57 -23 -107 -145 -84 -206 17 -43 38 -63 82 -74 73
-20 141 16 182 97 33 66 8 161 -50 183 -31 12 -101 12 -130 0z"/>
<path d="M4957 5931 c-41 -38 -45 -39 -152 -51 -332 -36 -590 -173 -799 -423
-171 -205 -277 -458 -280 -667 -1 -74 2 -89 22 -117 28 -40 80 -53 116 -29 18
11 26 28 31 63 20 153 54 256 125 378 65 114 158 234 269 349 138 141 242 212
358 242 71 18 107 18 124 -2 11 -14 10 -22 -9 -53 -44 -70 -155 -306 -227
-481 -26 -63 -51 -124 -56 -135 -5 -11 -34 -85 -64 -165 -30 -80 -59 -154 -64
-165 -5 -11 -17 -40 -26 -65 -62 -158 -51 -150 -207 -150 -199 0 -288 -40
-288 -130 0 -32 6 -43 33 -64 37 -28 135 -56 197 -56 53 0 145 24 218 56 66
29 126 32 191 10 31 -12 82 -16 181 -16 158 0 237 19 351 87 79 47 213 177
264 258 75 117 139 282 181 460 26 112 26 347 0 425 -48 143 -138 260 -239
310 -26 13 -54 31 -63 41 -14 16 -14 21 5 58 12 22 21 42 21 45 0 10 -76 26
-123 26 -41 0 -53 -5 -90 -39z m195 -300 c65 -58 83 -110 83 -246 0 -145 -23
-244 -102 -433 -157 -380 -302 -519 -547 -525 -55 -1 -89 2 -97 10 -9 10 4 46
64 167 77 156 145 315 187 436 12 36 28 79 35 95 7 17 23 55 35 85 67 166 167
379 196 417 37 49 86 46 146 -6z"/>
<path d="M6045 5948 c-16 -6 -36 -15 -43 -21 -26 -20 -52 -96 -52 -150 0 -46
4 -57 29 -81 64 -61 166 -42 221 42 82 125 -16 259 -155 210z"/>
<path d="M14843 5797 c-44 -16 -54 -28 -69 -84 -13 -48 -94 -324 -116 -397
-18 -57 -31 -66 -97 -66 -66 0 -73 -6 -96 -70 -19 -53 -12 -61 54 -68 81 -7
81 2 11 -237 -18 -60 -36 -126 -40 -145 -4 -19 -13 -60 -20 -90 -21 -92 -117
-184 -230 -221 -67 -21 -300 -19 -364 4 -105 38 -110 55 -36 111 71 54 212
207 264 285 60 90 76 144 76 249 0 100 -18 149 -71 198 -154 141 -467 34 -592
-203 -81 -155 -111 -279 -104 -425 l6 -108 -36 -29 c-20 -16 -64 -44 -98 -60
-111 -55 -254 -38 -286 33 -12 26 -2 67 62 236 95 255 139 400 139 458 0 52
-34 102 -90 130 -130 65 -285 -20 -472 -260 -87 -110 -110 -113 -66 -6 15 38
21 76 22 135 1 72 -2 84 -22 106 -26 28 -83 47 -138 47 -118 -1 -249 -102
-388 -298 -104 -148 -104 -65 0 187 32 77 34 85 20 106 -9 13 -32 29 -52 35
-47 16 -150 9 -170 -12 -14 -14 -29 -59 -69 -213 -7 -27 -20 -75 -29 -105 -14
-51 -35 -128 -85 -310 -11 -41 -27 -102 -36 -135 -68 -244 -70 -255 -51 -273
21 -22 150 -24 189 -3 17 9 44 50 81 122 31 59 65 124 76 143 10 20 36 66 56
103 134 248 256 415 324 443 64 26 97 -16 69 -87 -6 -15 -15 -37 -19 -48 -4
-11 -14 -38 -23 -60 -25 -67 -68 -177 -88 -228 -79 -194 -139 -363 -134 -378
11 -33 183 -39 222 -7 9 7 31 46 50 86 54 120 276 467 395 618 71 91 109 111
143 77 22 -21 16 -48 -31 -149 -75 -162 -110 -257 -140 -374 -33 -135 1 -206
126 -257 58 -23 297 -26 375 -4 69 20 155 64 184 95 14 14 31 26 39 26 8 0 36
-20 61 -44 28 -25 71 -52 106 -65 66 -25 229 -51 323 -51 72 0 249 24 307 42
50 15 144 69 169 97 24 26 53 27 61 1 8 -26 60 -68 115 -93 63 -29 286 -31
372 -4 59 19 162 80 187 111 19 23 26 108 12 135 -12 22 -13 21 -70 -31 -119
-110 -239 -140 -336 -84 -49 29 -75 69 -75 114 0 23 47 196 99 367 5 17 19 63
31 103 13 44 29 76 40 82 10 6 61 10 113 10 91 0 94 1 105 25 14 30 16 82 3
89 -5 3 -42 9 -82 12 -41 4 -80 11 -87 17 -13 10 -10 45 8 97 53 152 121 385
118 407 -2 17 -12 32 -28 40 -31 16 -134 15 -177 0z m-832 -676 c37 -29 32
-117 -11 -196 -65 -120 -145 -210 -253 -284 -69 -47 -81 -41 -85 41 -3 78 18
158 73 272 69 144 204 225 276 167z"/>
<path d="M31264 5480 c-12 -5 -35 -25 -50 -45 -37 -48 -46 -146 -19 -204 17
-38 17 -39 -20 -147 -43 -125 -58 -161 -127 -299 -98 -195 -194 -299 -312
-339 -70 -23 -293 -23 -362 1 -60 20 -94 41 -94 58 0 7 24 33 53 58 129 110
240 238 299 343 32 57 33 62 33 179 0 114 -1 122 -27 161 -49 76 -108 104
-216 104 -177 0 -344 -111 -426 -283 -75 -157 -100 -267 -93 -404 l5 -103 -42
-36 c-70 -62 -147 -91 -261 -98 -55 -3 -111 -7 -125 -8 -17 -2 -25 3 -28 16
-2 10 58 205 134 432 157 472 155 453 61 475 -91 20 -129 -1 -163 -89 -9 -26
-32 -78 -49 -117 -18 -38 -43 -95 -56 -125 -35 -84 -126 -257 -174 -330 -57
-87 -108 -136 -163 -154 -42 -15 -48 -15 -81 2 -41 20 -54 55 -47 125 5 49 55
204 108 337 16 41 33 84 38 95 4 11 27 64 50 119 49 110 48 119 -15 150 -50
23 -135 18 -166 -10 -41 -36 -140 -262 -179 -409 -4 -16 -17 -64 -28 -105 -11
-41 -24 -109 -28 -150 -4 -41 -10 -85 -15 -97 -10 -27 -114 -105 -176 -133
-55 -24 -134 -26 -194 -5 -51 18 -78 49 -79 87 0 30 76 267 91 283 5 5 9 15 9
21 0 7 16 47 35 88 19 42 35 78 35 80 0 3 15 37 34 78 103 224 102 231 -38
257 -68 12 -101 0 -136 -49 -26 -36 -45 -37 -108 -7 -40 19 -63 22 -152 21
-127 0 -193 -20 -310 -92 -195 -120 -338 -373 -348 -612 -4 -121 10 -169 72
-238 71 -78 200 -94 317 -41 75 35 189 135 235 208 22 33 46 60 55 60 14 1 16
-10 11 -87 -5 -87 -4 -89 26 -123 45 -52 111 -69 264 -69 147 0 225 19 308 75
29 19 56 35 62 35 5 0 29 -20 54 -44 72 -73 137 -82 239 -35 89 41 185 122
252 212 34 46 63 61 63 33 0 -7 -18 -62 -39 -122 -90 -250 -81 -232 -147 -285
-78 -62 -169 -160 -193 -207 -33 -66 -46 -136 -32 -171 19 -44 35 -53 89 -53
124 0 218 93 342 343 66 131 109 185 158 198 20 5 78 12 127 16 137 10 263 56
322 117 15 16 29 28 33 28 3 0 27 -20 54 -45 57 -52 129 -82 241 -101 163 -28
413 -11 537 36 79 29 167 98 236 183 102 127 136 187 212 377 23 58 46 114 51
125 5 11 13 32 19 48 13 38 33 43 74 17 77 -47 102 -102 72 -158 -40 -76 -102
-261 -131 -389 l-18 -82 24 -47 c18 -35 37 -54 79 -78 55 -31 56 -31 195 -30
156 1 247 21 318 69 l38 27 48 -45 c26 -25 62 -48 80 -52 81 -18 233 31 325
104 30 24 42 28 57 20 10 -5 19 -15 19 -22 1 -19 42 -63 75 -80 61 -30 140
-41 203 -28 127 29 238 112 326 244 102 156 171 303 206 442 42 163 39 233
-11 290 -43 49 -95 63 -153 41 -70 -27 -106 -92 -106 -194 0 -63 1 -66 40
-103 31 -30 40 -46 40 -72 0 -108 -152 -375 -259 -453 -36 -26 -56 -34 -92
-34 -32 0 -51 5 -60 17 -19 22 -16 152 6 228 30 107 82 258 113 325 16 36 32
73 36 83 16 47 -49 87 -139 87 -49 0 -56 -3 -83 -35 -32 -39 -77 -168 -118
-340 -15 -60 -31 -123 -37 -139 -18 -49 -104 -144 -160 -176 -105 -60 -167
-26 -153 84 11 85 42 204 76 291 34 87 46 117 66 163 13 29 24 55 24 57 0 3
18 42 40 89 22 46 40 87 40 90 0 3 -10 14 -22 26 -18 16 -35 20 -99 20 -68 0
-81 -3 -107 -24 -91 -77 -230 -478 -233 -676 -1 -78 -3 -86 -29 -110 -16 -15
-57 -41 -93 -58 -56 -28 -75 -32 -145 -32 -72 0 -84 3 -111 26 -17 14 -31 35
-31 47 0 24 65 210 109 312 67 155 84 231 62 274 -14 25 -116 93 -206 136 -93
45 -96 49 -90 114 9 98 -26 151 -100 150 -16 0 -40 -4 -51 -9z m-786 -321 c75
-26 63 -142 -29 -279 -74 -110 -226 -245 -271 -238 -21 3 -23 9 -26 63 -4 68
8 117 51 225 50 123 123 205 206 230 36 11 34 11 69 -1z m-2336 -46 c10 -9 18
-25 18 -35 0 -10 -25 -67 -56 -126 -101 -194 -242 -386 -337 -459 -90 -70
-177 -24 -177 94 0 125 96 312 217 424 84 78 171 119 252 119 46 0 70 -5 83
-17z"/>
<path d="M18835 5427 c-48 -48 -64 -127 -41 -204 14 -45 15 -67 8 -98 -31
-125 -148 -387 -227 -506 -59 -87 -144 -163 -215 -191 -47 -19 -75 -22 -200
-22 -132 -1 -150 1 -205 24 -84 35 -84 53 0 120 80 64 191 188 249 279 61 94
79 154 75 255 -4 71 -8 89 -34 132 -62 99 -189 139 -317 99 -193 -61 -303
-177 -384 -410 -25 -72 -28 -95 -29 -224 l-2 -143 -29 -28 c-58 -58 -140 -98
-212 -104 -37 -4 -98 -11 -135 -17 -47 -8 -72 -8 -79 -1 -7 7 30 116 116 344
70 183 132 344 137 358 76 183 63 220 -76 220 -79 0 -81 -1 -119 -52 -16 -21
-34 -38 -41 -38 -8 0 -37 12 -67 27 -45 24 -68 28 -152 31 -73 3 -110 0 -145
-13 -137 -49 -262 -137 -347 -243 -110 -138 -153 -247 -179 -454 -6 -45 -9
-49 -73 -91 -98 -64 -118 -70 -253 -71 l-119 -1 -65 70 c-66 72 -78 102 -47
111 100 29 207 119 249 209 26 55 28 70 28 175 0 126 -14 171 -69 237 -35 42
-138 91 -207 99 -126 15 -229 -59 -229 -165 0 -64 21 -75 84 -45 49 24 98 12
145 -35 75 -75 61 -186 -34 -270 -55 -48 -173 -100 -245 -108 -68 -7 -95 -24
-106 -68 -10 -39 0 -51 53 -64 72 -19 133 -52 175 -93 38 -38 47 -61 28 -73
-5 -3 -49 -20 -97 -36 -125 -43 -181 -74 -236 -127 -80 -78 -137 -198 -137
-290 0 -87 68 -171 174 -216 75 -31 236 -18 323 27 61 32 144 133 195 237 31
64 49 133 55 212 7 90 -3 84 133 92 105 7 189 35 266 91 20 15 24 13 72 -34
55 -54 97 -71 175 -71 108 0 255 77 360 190 54 57 77 68 77 35 0 -7 -17 -51
-39 -97 -21 -45 -52 -113 -69 -149 -26 -56 -38 -71 -83 -99 -69 -42 -199 -173
-224 -225 -10 -22 -20 -63 -23 -90 -4 -44 0 -55 23 -83 36 -43 90 -59 141 -42
125 41 211 141 327 380 49 102 61 119 97 139 47 26 130 45 240 55 114 11 183
37 269 102 51 39 66 42 81 13 13 -24 99 -79 151 -97 51 -17 224 -42 296 -42
81 0 275 27 333 46 25 9 64 26 88 40 55 32 165 143 224 225 42 59 118 197 118
214 0 4 6 21 14 38 8 18 34 82 59 142 56 136 69 142 146 67 50 -47 64 -84 42
-108 -29 -31 -130 -332 -146 -436 -18 -115 57 -194 198 -207 81 -8 244 4 306
23 54 16 144 70 175 105 24 27 48 27 72 0 25 -28 80 -62 124 -78 117 -40 334
-52 501 -27 132 21 189 43 270 107 l37 29 49 -48 c72 -68 119 -82 279 -82 105
0 142 4 189 20 131 45 205 111 205 185 0 46 -7 75 -19 75 -4 0 -28 -20 -54
-44 -26 -24 -79 -60 -118 -81 -66 -35 -76 -37 -142 -33 -84 4 -146 31 -165 70
-15 32 -9 60 77 318 33 102 79 239 101 306 65 196 55 224 -78 224 -113 0 -131
-14 -165 -130 -9 -30 -26 -86 -38 -125 -58 -191 -101 -347 -119 -430 -16 -73
-38 -112 -82 -145 -106 -80 -153 -93 -331 -88 -130 3 -147 5 -200 30 -37 18
-57 33 -55 42 2 8 39 45 82 83 105 90 234 244 275 329 31 64 34 76 34 169 1
108 -10 143 -62 198 -46 50 -92 67 -179 67 -182 0 -336 -97 -427 -272 -78
-148 -111 -304 -95 -451 5 -43 7 -84 4 -92 -6 -16 -121 -93 -166 -113 -73 -31
-199 -26 -237 9 -38 35 -29 74 69 319 98 244 104 272 70 320 -19 27 -120 91
-232 148 -53 27 -53 27 -54 77 -1 28 -2 64 -3 81 -1 18 -11 42 -26 58 -20 22
-33 26 -76 26 -44 0 -55 -4 -84 -33z m1335 -283 c22 -22 20 -119 -4 -169 -31
-66 -84 -144 -134 -197 -58 -63 -163 -138 -191 -138 -57 0 -32 179 50 346 34
71 121 158 172 173 39 12 87 6 107 -15z m-2060 -26 c51 -55 5 -198 -105 -331
-57 -69 -191 -177 -220 -177 -72 0 -15 270 88 417 68 97 188 143 237 91z
m-1108 -25 c25 -22 19 -52 -27 -150 -79 -163 -263 -404 -359 -470 -83 -57
-149 -41 -176 43 -30 90 83 327 221 465 47 47 135 106 186 125 47 18 129 11
155 -13z m-1474 -855 c15 -15 15 -59 -2 -128 -33 -138 -132 -240 -234 -240
-39 0 -53 5 -73 26 -30 32 -32 101 -4 154 25 47 122 143 168 165 68 32 127 41
145 23z"/>
<path d="M23232 5379 c-34 -10 -54 -42 -72 -114 -8 -32 -66 -249 -80 -300 -5
-16 -26 -95 -48 -175 -53 -195 -60 -210 -129 -264 -85 -67 -152 -96 -221 -96
-74 0 -148 25 -169 56 -25 39 -12 94 102 439 59 176 107 335 108 354 2 52 -29
71 -114 71 -38 0 -84 -6 -102 -14 -35 -14 -46 -36 -82 -161 -22 -76 -35 -120
-51 -170 -26 -81 -63 -213 -89 -320 -37 -156 -25 -225 54 -300 69 -66 112 -77
281 -73 131 3 151 6 210 30 l65 28 23 -30 c22 -29 27 -30 100 -30 44 1 87 6
101 14 14 8 48 59 85 132 196 377 302 548 393 636 87 84 160 65 129 -34 -13
-41 -76 -210 -95 -253 -5 -11 -20 -49 -34 -85 -108 -274 -137 -352 -137 -368
0 -34 21 -42 111 -42 72 0 91 3 113 21 14 11 26 25 26 30 0 28 90 188 204 364
217 335 294 423 346 395 29 -15 25 -58 -11 -137 -121 -265 -178 -453 -158
-527 15 -55 70 -106 143 -130 77 -26 282 -27 370 -1 83 24 151 62 191 107 31
34 35 44 35 93 0 36 -5 57 -13 61 -7 2 -35 -16 -62 -41 -129 -120 -294 -149
-387 -67 -26 22 -22 69 13 164 17 45 44 118 61 162 50 133 89 256 103 323 23
110 -12 177 -108 209 -44 14 -58 15 -101 4 -28 -7 -72 -24 -98 -37 -56 -31
-181 -153 -250 -245 -73 -98 -105 -105 -70 -16 47 116 50 202 11 252 -25 32
-110 60 -159 53 -109 -14 -238 -117 -355 -282 -37 -52 -71 -95 -76 -95 -22 0
-19 37 10 126 18 53 43 120 57 149 30 63 28 91 -6 116 -30 22 -122 32 -168 18z"/>
<path d="M10099 5314 c-36 -15 -54 -41 -70 -99 -4 -16 -15 -55 -24 -85 -9 -30
-20 -68 -25 -85 -5 -16 -21 -68 -35 -115 -53 -171 -95 -352 -95 -406 0 -93 55
-173 150 -217 38 -18 65 -21 180 -21 181 -1 256 20 351 99 l44 37 32 -37 c49
-56 91 -84 164 -105 126 -38 259 -17 377 60 169 108 311 410 312 658 0 118
-16 164 -72 204 -44 31 -145 33 -178 3 -67 -61 -66 -190 4 -254 36 -33 34 -87
-5 -204 -78 -231 -158 -331 -277 -343 -57 -6 -88 9 -120 56 -21 30 -23 43 -18
90 20 192 184 496 351 648 30 28 55 55 55 61 0 6 -15 18 -32 27 -29 15 -40 15
-93 5 -143 -30 -296 -140 -391 -281 -60 -89 -107 -231 -123 -375 -9 -77 -11
-81 -52 -118 -24 -21 -72 -55 -108 -75 -61 -34 -72 -36 -142 -35 -87 2 -145
24 -168 64 -13 24 -13 34 1 90 9 35 26 93 38 129 54 155 71 205 124 370 31 96
56 185 56 198 0 13 -11 34 -25 47 -21 21 -33 25 -87 24 -35 0 -79 -7 -99 -15z"/>
<path d="M5812 5285 c-31 -14 -44 -35 -63 -100 -4 -16 -15 -52 -23 -80 -117
-392 -156 -541 -156 -597 0 -98 53 -179 145 -222 50 -24 64 -26 193 -26 111 0
150 4 195 19 65 23 136 63 162 91 24 27 47 25 76 -6 77 -84 219 -124 439 -123
295 0 500 82 517 207 6 44 -2 92 -15 92 -5 0 -32 -23 -61 -51 -29 -28 -78 -63
-110 -78 -53 -25 -63 -26 -221 -26 -158 0 -167 1 -222 27 -32 15 -58 32 -58
37 0 6 15 23 32 38 153 130 275 270 329 379 58 116 50 274 -17 353 -52 60
-102 81 -193 81 -207 -1 -382 -139 -471 -374 -45 -119 -64 -279 -45 -378 6
-34 4 -40 -26 -67 -18 -17 -64 -47 -102 -67 -65 -34 -73 -36 -145 -32 -90 4
-145 27 -162 67 -15 37 -9 60 116 439 57 172 104 326 104 342 0 50 -32 70
-114 70 -39 -1 -86 -7 -104 -15z m1025 -187 c7 -6 17 -25 22 -44 28 -100 -95
-296 -263 -421 -60 -45 -99 -54 -110 -27 -29 77 54 328 141 424 68 76 161 106
210 68z"/>
<path d="M14367 1423 c-4 -3 -7 -49 -7 -100 0 -75 3 -98 17 -111 12 -12 18
-13 21 -4 5 16 11262 18 11262 2 0 -6 9 -2 20 8 19 17 20 29 18 113 l-3 94
-5661 3 c-3113 1 -5664 -1 -5667 -5z"/>
</g>
</svg>
