<svg id="Ebene_1" data-name="Ebene 1" xmlns="http://www.w3.org/2000/svg" viewBox="0 0 549.92 115.93"><defs><style>.cls-1{fill:#53a151;}.cls-2{fill:#20201e;}</style></defs><path class="cls-1" d="M32.84,411.49c-1,0-1.39-.35-1.39-1.25v-.35c0-.82.21-1.24,1.39-1.24h.27c2.49,0,3-.07,3-1.94V368.89c0-3.66-.14-4.35-3.32-4.35h-.28c-1.17,0-1.52-.42-1.52-1.25V363c0-.9.55-1.25,1.52-1.25H46c1,0,1.46.35,1.46,1.25v.34c0,.83-.28,1.25-1.46,1.25h-.27c-2.84,0-3.25.41-3.32,3v17.63l17.49-18.32c1.32-1.31,1.59-2.28,0-2.28H58.7c-1.11,0-1.39-.42-1.39-1.32,0-1.1.35-1.52,1.53-1.52H69.28c1,0,1.45.35,1.45,1.25v.34c0,.83-.35,1.25-1.45,1.25H69c-2.15,0-3.18.34-6.71,4.15l-14.1,14.79L62.5,401.94c4.63,6.16,5.46,6.71,7.4,6.71h.27c1.18,0,1.53.42,1.53,1.24v.35c0,1-.83,1.25-1.53,1.25H66.09c-3.8,0-4.9-.35-9.33-6.57L42.45,385.83v19.92c0,2.76.34,2.9,2.9,2.9h.28c1.17,0,1.52.42,1.52,1.24v.35c0,.9-.55,1.25-1.52,1.25Z" transform="translate(-31.04 -361.08)"/><path class="cls-1" d="M108.27,411.49c-.83,0-1.31-.35-1.31-1.18v-.42c0-1,.35-1.24,1.31-1.24h1.59c1.18,0,1.87-.21,1.87-1.18a6.23,6.23,0,0,0-.48-2.07l-3.11-9.13H91.33l-3.11,9.41c-.9,2.76-.48,3,.69,3h2.63c.83,0,1.25.35,1.25,1.11v.55c0,.76-.28,1.18-1.25,1.18H80.27c-.9,0-1.38-.35-1.38-1.18v-.48c0-.76.34-1.18,1.38-1.18h1.94c1.31,0,1.73-.35,2.76-3.32l14.59-42.94c.35-.89.56-1.31,1.52-1.31h.35c.9,0,1.17.35,1.52,1.31l14.73,42.39c1.17,3.52,1.52,3.87,4.35,3.87h.56c.9,0,1.31.35,1.31,1.18v.48c0,.76-.28,1.18-1.31,1.18ZM92.16,393.65h15.08l-7.61-22.27Z" transform="translate(-31.04 -361.08)"/><path class="cls-1" d="M171.82,411.49c-.9,0-1.52-.35-1.52-1.25v-.35c0-.82.34-1.24,1.52-1.24h.35c4,0,4.21-.48,4.21-4.29v-35.6l-16.25,42.1c-.34.83-.62,1.11-1.45,1.11h-.41c-1,0-1.38-.28-1.66-1.11l-16.18-42.1v35.53c0,3.67.14,4.36,4,4.36h.34c1.25,0,1.6.42,1.6,1.24v.35c0,.9-.56,1.25-1.6,1.25h-12.3c-.9,0-1.52-.35-1.52-1.25v-.35c0-.82.34-1.24,1.52-1.24h.41c3.46,0,4-.35,4.15-3V366.34c-.14-1.66-.83-1.8-3.66-1.8h-.49c-.9,0-1.52-.35-1.52-1.25V363c0-.83.42-1.25,1.52-1.25h8.85a2.77,2.77,0,0,1,2.91,1.8L160,403l14.79-39.48c.49-1.38.9-1.8,2.35-1.8h1.18v.14l.14-.14h7.19c1.1,0,1.45.42,1.45,1.25v.34c0,.9-.48,1.25-1.45,1.25h-.49c-2.42,0-3,.14-3,1.66v39.34c.07,2.63.62,3.11,4,3.11h.35c1.24,0,1.66.42,1.66,1.24v.35c0,.9-.62,1.25-1.66,1.25Z" transform="translate(-31.04 -361.08)"/><path class="cls-1" d="M238.82,411.49c-.9,0-1.52-.35-1.52-1.25v-.35c0-.82.35-1.24,1.52-1.24h.35c4,0,4.22-.48,4.22-4.29v-35.6l-16.25,42.1c-.35.83-.62,1.11-1.45,1.11h-.42c-1,0-1.38-.28-1.66-1.11l-16.18-42.1v35.53c0,3.67.14,4.36,4,4.36h.35c1.24,0,1.59.42,1.59,1.24v.35c0,.9-.55,1.25-1.59,1.25H199.48c-.9,0-1.52-.35-1.52-1.25v-.35c0-.82.35-1.24,1.52-1.24h.42c3.45,0,4-.35,4.14-3V366.34c-.13-1.66-.82-1.8-3.66-1.8h-.48c-.9,0-1.52-.35-1.52-1.25V363c0-.83.41-1.25,1.52-1.25h8.85a2.76,2.76,0,0,1,2.9,1.8L227,403l14.8-39.48c.48-1.38.9-1.8,2.35-1.8h1.17v.14l.14-.14h7.19c1.11,0,1.45.42,1.45,1.25v.34c0,.9-.48,1.25-1.45,1.25h-.48c-2.42,0-3,.14-3,1.66v39.34c.06,2.63.62,3.11,4,3.11h.34c1.25,0,1.66.42,1.66,1.24v.35c0,.9-.62,1.25-1.66,1.25Z" transform="translate(-31.04 -361.08)"/><path class="cls-1" d="M267,411.49c-1,0-1.38-.35-1.38-1.25V410c0-.89.34-1.24,1.38-1.24h.48c2.91,0,3.25-.28,3.25-2.35V366.75c0-2.07-.41-2.28-3.25-2.28H267c-.83,0-1.38-.35-1.38-1.25V363c0-.83.34-1.25,1.38-1.25h27.59c1.79,0,2.28.69,2.49,2l.76,5.6c.13.83-.14,1.31-1,1.31h-.62c-.83,0-1.11-.27-1.53-1.38l-.76-2.63c-.55-1.59-1.17-2.07-3.66-2.07H277.06v19.63h7.26c2.77,0,3.46-.48,4.15-3.18l.14-.34c.21-1.25.69-1.52,1.45-1.52h.28c.9,0,1.11.34,1.11,1.38v10.3c0,.9-.14,1.25-1,1.25h-.28c-.9,0-1.24-.28-1.52-1.46l-.07-.34c-.55-3-1.24-3.25-4.08-3.25h-7.4v17.84c.07,3.59.77,3.8,4.64,3.8h8.64c3.11,0,3.8-.35,4.42-2.42l1.25-3.87c.35-1.11.62-1.38,1.59-1.38h.62c.83,0,1,.48.9,1.38L298,408.58c-.34,2.42-1,2.91-3.8,2.91Z" transform="translate(-31.04 -361.08)"/><path class="cls-1" d="M328.23,361.7c10.72,0,15.9,6,15.9,13.83,0,7.47-5.18,12.24-12.44,13.35,2.7,1.31,5.05,4.56,6.64,7.6l1.59,2.91c4.7,8.85,5,9.26,8.71,9.26,1,0,1.38.42,1.38,1.31v.28c0,1-.34,1.25-1.59,1.25h-1.59c-7.4,0-8.09-.9-13.07-10.58l-2.07-4c-2.14-4.15-5.05-7.68-8.92-7.68h-1.66v16.53c0,2.76.35,2.9,3.25,2.9h.28c1.24,0,1.59.42,1.59,1.24v.35c0,.9-.56,1.25-1.59,1.25H311.15c-1,0-1.45-.35-1.45-1.25v-.35c0-.82.28-1.24,1.45-1.24h.28c3.73,0,3.39-.28,3.39-4.7V369c0-3.66-.14-4.42-3.67-4.42h-.34c-1.18,0-1.52-.42-1.52-1.25V363c0-.9.55-1.25,1.52-1.25Zm-7.12,24.62h5.95c7,0,10.85-4.08,10.85-10.72,0-6.43-3.59-11.06-10.85-11.06h-2.29c-3.38,0-3.66.69-3.66,4.49Z" transform="translate(-31.04 -361.08)"/><path class="cls-1" d="M398.07,411.49c-.9,0-1.52-.35-1.52-1.25v-.35c0-.82.34-1.24,1.52-1.24h.34c4,0,4.22-.48,4.22-4.29v-35.6l-16.25,42.1c-.34.83-.62,1.11-1.45,1.11h-.41c-1,0-1.39-.28-1.66-1.11l-16.18-42.1v35.53c0,3.67.14,4.36,4,4.36H371c1.25,0,1.59.42,1.59,1.24v.35c0,.9-.55,1.25-1.59,1.25h-12.3c-.9,0-1.52-.35-1.52-1.25v-.35c0-.82.34-1.24,1.52-1.24h.41c3.46,0,4-.35,4.15-3V366.34c-.14-1.66-.83-1.8-3.66-1.8h-.49c-.9,0-1.52-.35-1.52-1.25V363c0-.83.42-1.25,1.52-1.25H368a2.77,2.77,0,0,1,2.91,1.8L386.25,403,401,363.5c.49-1.38.9-1.8,2.35-1.8h1.18v.14l.14-.14h7.19c1.1,0,1.45.42,1.45,1.25v.34c0,.9-.49,1.25-1.45,1.25h-.49c-2.42,0-3,.14-3,1.66v39.34c.07,2.63.62,3.11,4,3.11h.35c1.24,0,1.66.42,1.66,1.24v.35c0,.9-.63,1.25-1.66,1.25Z" transform="translate(-31.04 -361.08)"/><path class="cls-1" d="M426.28,411.49c-1,0-1.38-.35-1.38-1.25V410c0-.89.35-1.24,1.38-1.24h.49c2.9,0,3.25-.28,3.25-2.35V366.75c0-2.07-.42-2.28-3.25-2.28h-.49c-.82,0-1.38-.35-1.38-1.25V363c0-.83.35-1.25,1.38-1.25h27.59c1.8,0,2.28.69,2.49,2l.76,5.6c.14.83-.14,1.31-1,1.31h-.62c-.83,0-1.1-.27-1.52-1.38l-.76-2.63c-.55-1.59-1.18-2.07-3.66-2.07H436.31v19.63h7.26c2.77,0,3.46-.48,4.15-3.18l.14-.34c.2-1.25.69-1.52,1.45-1.52h.28c.89,0,1.1.34,1.1,1.38v10.3c0,.9-.14,1.25-1,1.25h-.27c-.9,0-1.25-.28-1.52-1.46l-.07-.34c-.56-3-1.25-3.25-4.08-3.25h-7.4v17.84c.07,3.59.76,3.8,4.63,3.8h8.65c3.11,0,3.8-.35,4.42-2.42l1.25-3.87c.34-1.11.62-1.38,1.59-1.38h.62c.83,0,1,.48.9,1.38l-1.11,6.22c-.35,2.42-1,2.91-3.8,2.91Z" transform="translate(-31.04 -361.08)"/><path class="cls-1" d="M470.26,411.49c-.9,0-1.45-.35-1.45-1.25v-.35c0-.82.34-1.24,1.45-1.24h.35c3.18,0,3.38-.14,3.38-2.9V368.89c0-3.66-.13-4.35-3-4.35h-.27c-1.25,0-1.53-.42-1.53-1.25V363c0-.9.56-1.25,1.53-1.25h12.93c.89,0,1.52.35,1.52,1.25v.34c0,.83-.35,1.25-1.52,1.25h-.28c-2.91,0-3.11.48-3.11,4.22v37.75c.07,2.07.69,2.14,3.32,2.14h.27c1.25,0,1.59.42,1.59,1.24v.35c0,.9-.55,1.25-1.59,1.25Z" transform="translate(-31.04 -361.08)"/><path class="cls-1" d="M498,411.49c-1,0-1.38-.35-1.38-1.25V410c0-.89.34-1.24,1.38-1.24h.48c2.9,0,3.25-.28,3.25-2.35V366.75c0-2.07-.41-2.28-3.25-2.28H498c-.83,0-1.38-.35-1.38-1.25V363c0-.83.34-1.25,1.38-1.25h27.59c1.79,0,2.28.69,2.49,2l.76,5.6c.13.83-.14,1.31-1,1.31h-.62c-.83,0-1.11-.27-1.52-1.38l-.77-2.63c-.55-1.59-1.17-2.07-3.66-2.07H508v19.63h7.26c2.77,0,3.46-.48,4.15-3.18l.14-.34c.21-1.25.69-1.52,1.45-1.52h.28c.9,0,1.11.34,1.11,1.38v10.3c0,.9-.14,1.25-1,1.25h-.28c-.9,0-1.24-.28-1.52-1.46l-.07-.34c-.55-3-1.24-3.25-4.08-3.25H508v17.84c.07,3.59.77,3.8,4.64,3.8h8.64c3.11,0,3.8-.35,4.43-2.42l1.24-3.87c.35-1.11.62-1.38,1.59-1.38h.62c.83,0,1,.48.9,1.38L529,408.58c-.34,2.42-1,2.91-3.8,2.91Z" transform="translate(-31.04 -361.08)"/><path class="cls-1" d="M559.18,361.7c10.72,0,15.9,6,15.9,13.83,0,7.47-5.18,12.24-12.44,13.35,2.7,1.31,5.05,4.56,6.64,7.6l1.59,2.91c4.7,8.85,5,9.26,8.71,9.26,1,0,1.38.42,1.38,1.31v.28c0,1-.34,1.25-1.59,1.25h-1.59c-7.4,0-8.09-.9-13.07-10.58l-2.07-4c-2.14-4.15-5-7.68-8.92-7.68h-1.66v16.53c0,2.76.35,2.9,3.25,2.9h.28c1.24,0,1.59.42,1.59,1.24v.35c0,.9-.56,1.25-1.59,1.25H542.1c-1,0-1.45-.35-1.45-1.25v-.35c0-.82.28-1.24,1.45-1.24h.28c3.73,0,3.39-.28,3.39-4.7V369c0-3.66-.14-4.42-3.67-4.42h-.34c-1.18,0-1.52-.42-1.52-1.25V363c0-.9.55-1.25,1.52-1.25Zm-7.12,24.62h6c7,0,10.85-4.08,10.85-10.72,0-6.43-3.59-11.06-10.85-11.06h-2.29c-3.38,0-3.66.69-3.66,4.49Z" transform="translate(-31.04 -361.08)"/><path class="cls-2" d="M53.61,465a25.74,25.74,0,0,1,.59-2.75c.3-1.17.68-2.42,1.15-3.75a42.33,42.33,0,0,1,3.82-8.14,1.14,1.14,0,0,1,.78-.57,9.17,9.17,0,0,1,1.19-.09,3.68,3.68,0,0,1,.92.11,2,2,0,0,1,.64.3c.3.26.36.53.15.81A44.94,44.94,0,0,0,58,461.08a25.48,25.48,0,0,0-.94,3.2c-.1.6-.17,1-.22,1.23a2.59,2.59,0,0,0-.07.57c0,.34.22.51.64.51a4.22,4.22,0,0,0,1.45-.3,11.15,11.15,0,0,0,1.71-.84,18,18,0,0,0,1.91-1.33,19.66,19.66,0,0,0,1.94-1.76,20.39,20.39,0,0,0,1.79-2.1,16.06,16.06,0,0,0,1.48-2.39,12,12,0,0,0,1.39-5.45q0-3.68-3-4.89a5.93,5.93,0,0,0-2.17-.41,11.4,11.4,0,0,0-1.91.14,10.34,10.34,0,0,0-1.5.41,7.38,7.38,0,0,0-2.45,1.4,1.28,1.28,0,0,1-.63.15,1.66,1.66,0,0,1-.79-.22,3.34,3.34,0,0,1-.76-.53,1.57,1.57,0,0,1-.61-1.44c.11-.66,1.09-1.22,2.94-1.71a19.26,19.26,0,0,1,4.69-.59,13.19,13.19,0,0,1,4.26.64,8.63,8.63,0,0,1,3.07,1.73,7.18,7.18,0,0,1,2.21,5.51,14.56,14.56,0,0,1-3.16,8.81,19.5,19.5,0,0,1-6.9,6,10.64,10.64,0,0,1-4.77,1.32,4.44,4.44,0,0,1-2.92-1A2.83,2.83,0,0,1,53.61,465Z" transform="translate(-31.04 -361.08)"/><path class="cls-2" d="M80.49,465.7c.27,0,.4.17.4.52a2.24,2.24,0,0,1-.63,1.43,3.1,3.1,0,0,1-2.47,1.07,2.45,2.45,0,0,1-2.44-1.44,2.87,2.87,0,0,1-.24-1.23,5.8,5.8,0,0,1,.25-1.6q.26-.88.63-1.86c.25-.64.52-1.3.82-2l.81-1.93a9.82,9.82,0,0,0,.89-2.85,2,2,0,0,0-.14-.91,1.36,1.36,0,0,0-.32-.35l-.3-.21a.42.42,0,0,1-.16-.38.78.78,0,0,1,.21-.51,2,2,0,0,1,.54-.43A3.57,3.57,0,0,1,80,452.7c1.51,0,2.26.39,2.26,1.18a8.51,8.51,0,0,1-.72,3.15c-.48,1.18-.89,2.13-1.23,2.86L79.34,462a10.13,10.13,0,0,0-1,3.36A.6.6,0,0,0,79,466a2.34,2.34,0,0,0,1-.17A1.17,1.17,0,0,1,80.49,465.7Zm3.14-16.6a2.88,2.88,0,0,1-.76.59A2.66,2.66,0,0,1,82,450a1.6,1.6,0,0,1-.89-.14,2.16,2.16,0,0,1-.73-.57,2.38,2.38,0,0,1-.66-1.55,1.85,1.85,0,0,1,.89-1.81,2.62,2.62,0,0,1,1.38-.47,4.44,4.44,0,0,1,1,.09,1.82,1.82,0,0,1,.66.31,1.45,1.45,0,0,1,.75,1.23,3,3,0,0,1-.2,1.21A2.84,2.84,0,0,1,83.63,449.1Z" transform="translate(-31.04 -361.08)"/><path class="cls-2" d="M86.85,463.2a10.16,10.16,0,0,1,.44-2.55,12.6,12.6,0,0,1,1-2.36,13.3,13.3,0,0,1,1.51-2.16,11.73,11.73,0,0,1,1.88-1.79,7.29,7.29,0,0,1,4.43-1.64,3.4,3.4,0,0,1,3.49,2.16,4.24,4.24,0,0,1,.29,1.74,4.75,4.75,0,0,1-.38,1.86,5.58,5.58,0,0,1-1,1.54A6.9,6.9,0,0,1,97,461.25a11,11,0,0,1-2,.94,14.51,14.51,0,0,1-4.66.8,2.79,2.79,0,0,0-.08.64,4.29,4.29,0,0,0,.09,1,2.89,2.89,0,0,0,.37.94,1.76,1.76,0,0,0,1.59.92,6.57,6.57,0,0,0,3.47-1,5,5,0,0,0,1-.73,1,1,0,0,1,.65-.38.59.59,0,0,1,.49.33,1.36,1.36,0,0,1,.2.75,2.23,2.23,0,0,1-.46,1.41c-1.28,1.29-3.2,1.93-5.74,1.93a4.91,4.91,0,0,1-3.62-1.35A5.36,5.36,0,0,1,86.85,463.2Zm9-8.46c-1.07,0-2.11.73-3.1,2.21a16.49,16.49,0,0,0-2,4.5,7.41,7.41,0,0,0,4.44-2,4.59,4.59,0,0,0,1.74-3.18C96.86,455.24,96.5,454.74,95.8,454.74Z" transform="translate(-31.04 -361.08)"/><path class="cls-2" d="M116.5,466.3a5.48,5.48,0,0,1-.29-2.08,19.37,19.37,0,0,1,.34-2.94,30.37,30.37,0,0,1,5-11.72,1.19,1.19,0,0,1,.92-.6,2.26,2.26,0,0,1,1,.21,3.82,3.82,0,0,1,.82.51c.6.49.79.89.59,1.19q-2.16,3.47-3.54,6.26a11.39,11.39,0,0,0,6.13-2.21,6.28,6.28,0,0,0,2.9-5.18,2.52,2.52,0,0,0-2.06-2.64,5.93,5.93,0,0,0-1.49-.17,9.47,9.47,0,0,0-1.8.18,12.57,12.57,0,0,0-1.78.48,13.12,13.12,0,0,0-3.12,1.66,1.29,1.29,0,0,1-.73.29,1.82,1.82,0,0,1-.74-.18,2.74,2.74,0,0,1-.7-.43c-.8-.68-.69-1.38.34-2.1a14,14,0,0,1,6.56-2c.54-.05,1.26-.07,2.17-.07a9.41,9.41,0,0,1,2.77.44,6.37,6.37,0,0,1,2.28,1.2,5,5,0,0,1,1.58,3.92,7.05,7.05,0,0,1-1.8,4.48,12.22,12.22,0,0,1-4.23,3.31,4,4,0,0,1,1.86,1.54,3.7,3.7,0,0,1,.59,2.13,5.55,5.55,0,0,1-.45,2.1,6.23,6.23,0,0,1-1.13,1.73,8.25,8.25,0,0,1-1.66,1.37,10.68,10.68,0,0,1-2,1,12.29,12.29,0,0,1-4.33.8Q117.41,468.72,116.5,466.3Zm3.71-6.69a15,15,0,0,0-1.23,5.05,2.13,2.13,0,0,0,.51,1.6,2,2,0,0,0,1.5.56,5.09,5.09,0,0,0,2-.42,6.93,6.93,0,0,0,1.86-1.12,4.94,4.94,0,0,0,2-3.67,2.44,2.44,0,0,0-1.69-2.55,4.37,4.37,0,0,0-1.12-.26,9.9,9.9,0,0,0-2,.37Z" transform="translate(-31.04 -361.08)"/><path class="cls-2" d="M140.67,465.7c.26,0,.4.17.4.52a2.24,2.24,0,0,1-.63,1.43,3.12,3.12,0,0,1-2.47,1.07,2.44,2.44,0,0,1-2.44-1.44,2.87,2.87,0,0,1-.24-1.23,5.8,5.8,0,0,1,.25-1.6q.26-.88.63-1.86c.25-.64.52-1.3.82-2l.81-1.93a10.17,10.17,0,0,0,.89-2.85,1.83,1.83,0,0,0-.15-.91,1.34,1.34,0,0,0-.31-.35l-.31-.21a.44.44,0,0,1-.15-.38.78.78,0,0,1,.21-.51,2,2,0,0,1,.54-.43,3.57,3.57,0,0,1,1.61-.35c1.5,0,2.25.39,2.25,1.18a8.51,8.51,0,0,1-.72,3.15c-.48,1.18-.89,2.13-1.22,2.86l-.92,2.11a9.89,9.89,0,0,0-1,3.36.6.6,0,0,0,.67.68,2.37,2.37,0,0,0,1-.17A1.17,1.17,0,0,1,140.67,465.7Zm3.14-16.6a2.77,2.77,0,0,1-.77.59,2.54,2.54,0,0,1-.9.27,1.62,1.62,0,0,1-.9-.14,2.62,2.62,0,0,1-1.39-2.12,2.16,2.16,0,0,1,.26-1.17,2.26,2.26,0,0,1,.63-.64,2.65,2.65,0,0,1,1.39-.47,4.35,4.35,0,0,1,1,.09,1.86,1.86,0,0,1,.67.31,1.45,1.45,0,0,1,.75,1.23,3,3,0,0,1-.21,1.21A2.82,2.82,0,0,1,143.81,449.1Z" transform="translate(-31.04 -361.08)"/><path class="cls-2" d="M148.3,467.52a4.28,4.28,0,0,1-1-1.55,6.5,6.5,0,0,1-.38-2.23,10.25,10.25,0,0,1,.32-2.61,12.37,12.37,0,0,1,.93-2.55,12.51,12.51,0,0,1,1.46-2.29,10.67,10.67,0,0,1,1.87-1.87,7.55,7.55,0,0,1,4.65-1.72,4.21,4.21,0,0,1,4.28,2.77,7.93,7.93,0,0,1,.09,4.86,12.69,12.69,0,0,1-2.36,4.82,9.55,9.55,0,0,1-4,3.11,6.15,6.15,0,0,1-2.29.46,6.54,6.54,0,0,1-2-.29A4,4,0,0,1,148.3,467.52Zm2.92-7.43a14.29,14.29,0,0,0-.72,2.33,9.69,9.69,0,0,0-.26,2.26,3.77,3.77,0,0,0,.33,1.67,1.08,1.08,0,0,0,1,.61,2.36,2.36,0,0,0,1.39-.49,6.89,6.89,0,0,0,1.33-1.28,12.75,12.75,0,0,0,1.21-1.84,17.78,17.78,0,0,0,1-2.17,12,12,0,0,0,.91-4.39c0-1.12-.23-1.84-.69-2.14a1.34,1.34,0,0,0-.78-.19,2.08,2.08,0,0,0-1.14.45,6.89,6.89,0,0,0-1.29,1.22,12.56,12.56,0,0,0-1.24,1.8A16.65,16.65,0,0,0,151.22,460.09Z" transform="translate(-31.04 -361.08)"/><path class="cls-2" d="M176.93,455.6c-.6,0-1.68.85-3.25,2.57-1.18,1.34-2,2.35-2.56,3l-1.38,1.75c-.6,1.12-1.06,2.06-1.4,2.8l-.83,1.78a4.19,4.19,0,0,1-.56.93.8.8,0,0,1-.64.27,2.08,2.08,0,0,1-.78-.15,2.16,2.16,0,0,1-.65-.37,1.42,1.42,0,0,1-.59-1.08,2.87,2.87,0,0,1,.34-.9l.58-1.24c.19-.37.4-.84.65-1.41l.86-2.1c1.2-3,1.81-5,1.81-5.84a1.25,1.25,0,0,0-.46-1.05l-.31-.21a.44.44,0,0,1-.15-.38.82.82,0,0,1,.2-.51,1.88,1.88,0,0,1,.55-.43,3.07,3.07,0,0,1,1.38-.35,3.23,3.23,0,0,1,1.1.15,2,2,0,0,1,.69.42,1.51,1.51,0,0,1,.58,1.12,4.82,4.82,0,0,1-.15,1.17,11.67,11.67,0,0,1-.38,1.19c-.16.41-.32.8-.49,1.18-.41.88-.67,1.41-.76,1.61s-.13.28-.09.23q2.81-3.64,3.38-4.3a14.11,14.11,0,0,1,1.84-1.87,3.88,3.88,0,0,1,2.29-.9,2.26,2.26,0,0,1,1.72.67,2.48,2.48,0,0,1,.65,1.78,6.55,6.55,0,0,1-.5,2.27c-.32.87-.54,1.48-.65,1.82l2.25-3,1.26-1.5a6.61,6.61,0,0,1,2-1.67,3.47,3.47,0,0,1,1.4-.4,2.86,2.86,0,0,1,1.07.2,2.31,2.31,0,0,1,.9.57,2.63,2.63,0,0,1,.78,2,6.06,6.06,0,0,1-.55,2.45c-.37.84-.69,1.53-1,2.06s-.55,1.08-.8,1.62a9.9,9.9,0,0,0-1.12,3.62c0,.55.22.83.67.83a2.6,2.6,0,0,0,1.18-.28,2.31,2.31,0,0,1,.68-.28.29.29,0,0,1,.32.33,2.67,2.67,0,0,1-1.39,2.28,3.17,3.17,0,0,1-1.71.63,3.32,3.32,0,0,1-1.25-.19,2.22,2.22,0,0,1-.86-.58,3.07,3.07,0,0,1-.86-2.22,8.25,8.25,0,0,1,.34-2.45,19.28,19.28,0,0,1,.79-2.17c.31-.7.62-1.35.93-1.93s.55-1.06.72-1.41a4.5,4.5,0,0,0,.49-1.58c0-.39-.21-.59-.63-.59s-1.55.91-3,2.74c-1.08,1.42-1.83,2.44-2.25,3.07l-1.06,1.53c-.59,1.12-1,2.06-1.36,2.8l-.78,1.78a5,5,0,0,1-.51.93.72.72,0,0,1-.6.27,2.34,2.34,0,0,1-.74-.12,2.15,2.15,0,0,1-.62-.33,1.21,1.21,0,0,1-.6-.94,4.09,4.09,0,0,1,.33-1.36c.22-.58.49-1.23.82-1.94l2.15-4.54a11.83,11.83,0,0,0,1.15-3.21C177.56,455.82,177.35,455.6,176.93,455.6Zm1.51,4.32a0,0,0,0,0,0,0l0,0S178.44,459.91,178.44,459.92Z" transform="translate(-31.04 -361.08)"/><path class="cls-2" d="M193.46,463.2a9.74,9.74,0,0,1,.45-2.55,11.94,11.94,0,0,1,1-2.36,14,14,0,0,1,1.51-2.16,12.16,12.16,0,0,1,1.88-1.79,7.31,7.31,0,0,1,4.43-1.64,3.41,3.41,0,0,1,3.5,2.16,4.41,4.41,0,0,1,.29,1.74,4.76,4.76,0,0,1-.39,1.86,5.33,5.33,0,0,1-1,1.54,7.38,7.38,0,0,1-1.55,1.25,10.76,10.76,0,0,1-2,.94,14.46,14.46,0,0,1-4.66.8,2.92,2.92,0,0,0-.07.64,4.29,4.29,0,0,0,.09,1,2.68,2.68,0,0,0,.37.94,1.74,1.74,0,0,0,1.59.92,6.51,6.51,0,0,0,3.46-1,5.09,5.09,0,0,0,1-.73,1,1,0,0,1,.65-.38.59.59,0,0,1,.48.33,1.37,1.37,0,0,1,.21.75,2.23,2.23,0,0,1-.46,1.41c-1.29,1.29-3.2,1.93-5.75,1.93a4.93,4.93,0,0,1-3.62-1.35A5.36,5.36,0,0,1,193.46,463.2Zm8.95-8.46c-1.07,0-2.1.73-3.09,2.21a16.81,16.81,0,0,0-2,4.5,7.47,7.47,0,0,0,4.45-2,4.61,4.61,0,0,0,1.73-3.18C203.47,455.24,203.12,454.74,202.41,454.74Z" transform="translate(-31.04 -361.08)"/><path class="cls-2" d="M219.39,464.55q.45,0,.45.6a1.77,1.77,0,0,1-.31,1,4.37,4.37,0,0,1-1.65,1.69,5.24,5.24,0,0,1-2.84.9,2.93,2.93,0,0,1-3.13-2.21q-.78-2.62,2.35-11.11c-1.18-.11-1.82-.31-1.92-.62a1,1,0,0,1,0-.3.75.75,0,0,1,.14-.37,2.06,2.06,0,0,1,.38-.41,1.69,1.69,0,0,1,1.09-.45h1.21c1.1-2.58,1.89-4.06,2.36-4.42a1.24,1.24,0,0,1,.75-.24,1.92,1.92,0,0,1,.69.11,1.54,1.54,0,0,1,.49.3,1.38,1.38,0,0,1,.49,1,1.77,1.77,0,0,1-.18.71l-1.14,2.46h1.9l.88,0h.72c.3,0,.44.11.44.32q0,2-4.78,2h-.12l-1.05,2.7a23.55,23.55,0,0,0-1.76,6.7,1.26,1.26,0,0,0,.25.84,1.14,1.14,0,0,0,.92.3,3.19,3.19,0,0,0,1.22-.23,5.86,5.86,0,0,0,1-.52l.71-.51A.93.93,0,0,1,219.39,464.55Z" transform="translate(-31.04 -361.08)"/><path class="cls-2" d="M226.76,466.1a14.91,14.91,0,0,1,4.75-.86,3,3,0,0,1,2.26.81,2.73,2.73,0,0,1,.72,2,.66.66,0,0,1-.19.49.66.66,0,0,1-.49.19,1.46,1.46,0,0,1-.64-.17l-.78-.37a7.58,7.58,0,0,0-6.38.23,4.8,4.8,0,0,1-.77.29,1.12,1.12,0,0,1-.72-.1,3.86,3.86,0,0,1-.75-.49c-.58-.52-.78-1-.61-1.53a7.22,7.22,0,0,1,.85-1.65,16.59,16.59,0,0,1,1.36-1.79c.51-.59,1.06-1.18,1.65-1.75q2.35-2.19,3.39-3.06c1.6-1.36,2.57-2.21,2.92-2.53A4.35,4.35,0,0,0,234,455a11.77,11.77,0,0,1-3.55.85,9.25,9.25,0,0,1-.94.06,3.45,3.45,0,0,1-2.24-.57,2.09,2.09,0,0,1-.67-1.7,1.12,1.12,0,0,1,.2-.7.58.58,0,0,1,.47-.25,2.05,2.05,0,0,1,.7.16c.29.11.65.23,1.07.36a9.57,9.57,0,0,0,2.88.52,8.39,8.39,0,0,0,1.73-.12c.33-.08.62-.17.88-.26l.7-.28a1.85,1.85,0,0,1,.64-.12.88.88,0,0,1,.58.21,2.75,2.75,0,0,1,.47.49,2.27,2.27,0,0,1,.46,1.26,2.61,2.61,0,0,1-.65,1.45,13.83,13.83,0,0,1-1.65,1.79c-.68.63-1.42,1.28-2.24,1.94l-2.42,2A16.25,16.25,0,0,0,226.76,466.1Zm-.2.41,0,0A0,0,0,0,0,226.56,466.51Z" transform="translate(-31.04 -361.08)"/><path class="cls-2" d="M248.94,465.22c-1.55,2.33-3.28,3.5-5.17,3.5a3.45,3.45,0,0,1-3.45-2.73,7.59,7.59,0,0,1-.3-2.3,10,10,0,0,1,.39-2.74,12.25,12.25,0,0,1,1.06-2.59,12.49,12.49,0,0,1,1.59-2.27,12,12,0,0,1,1.95-1.78,7.32,7.32,0,0,1,4.33-1.61,3.14,3.14,0,0,1,3.06,2,3.21,3.21,0,0,0,.34-.41,3.17,3.17,0,0,1,.34-.39,1.07,1.07,0,0,1,.7-.4,2,2,0,0,1,.62.11,3.07,3.07,0,0,1,.64.29c.5.3.69.57.57.83a31.69,31.69,0,0,0-1.41,3.59l-2.27,7.23q-2.69,8.24-6.81,10.64a4.94,4.94,0,0,1-1.88.74,3.35,3.35,0,0,1-1.15,0,2.25,2.25,0,0,1-.63-.26c-.4-.26-.6-.48-.6-.69,0-.36.24-.58.71-.66a4.51,4.51,0,0,0,1.5-.57,9,9,0,0,0,1.48-1.1Q247.46,471,248.94,465.22Zm-4.59-5.32a14.7,14.7,0,0,0-.64,2.27,10.38,10.38,0,0,0-.23,1.89,10.18,10.18,0,0,0,.05,1.12,2.19,2.19,0,0,0,.18.67,1,1,0,0,0,.91.65,2,2,0,0,0,1.18-.43,7.88,7.88,0,0,0,1.22-1.15,14.57,14.57,0,0,0,1.29-1.74,22.7,22.7,0,0,0,1.23-2.14,21.27,21.27,0,0,0,1.81-4.86,1.71,1.71,0,0,0-.53-.87,2.4,2.4,0,0,0-1.57-.85,2.67,2.67,0,0,0-1.41.44,5.83,5.83,0,0,0-1.35,1.18,10.07,10.07,0,0,0-1.18,1.73A14.7,14.7,0,0,0,244.35,459.9Z" transform="translate(-31.04 -361.08)"/><path class="cls-2" d="M259,463.2a10.17,10.17,0,0,1,.45-2.55,12,12,0,0,1,1-2.36,13.3,13.3,0,0,1,1.51-2.16,11.67,11.67,0,0,1,1.87-1.79,7.34,7.34,0,0,1,4.44-1.64,3.4,3.4,0,0,1,3.49,2.16,4.41,4.41,0,0,1,.29,1.74,4.94,4.94,0,0,1-.38,1.86,5.58,5.58,0,0,1-1,1.54,7.14,7.14,0,0,1-1.55,1.25,11,11,0,0,1-1.95.94,14.56,14.56,0,0,1-4.66.8,2.32,2.32,0,0,0-.08.64,4.29,4.29,0,0,0,.09,1,2.68,2.68,0,0,0,.37.94,1.76,1.76,0,0,0,1.59.92,6.57,6.57,0,0,0,3.47-1,5,5,0,0,0,1-.73,1,1,0,0,1,.65-.38.59.59,0,0,1,.49.33,1.45,1.45,0,0,1,.2.75,2.23,2.23,0,0,1-.46,1.41q-1.92,1.93-5.75,1.93a4.9,4.9,0,0,1-3.61-1.35A5.33,5.33,0,0,1,259,463.2Zm9-8.46c-1.08,0-2.11.73-3.1,2.21a16.49,16.49,0,0,0-2,4.5,7.44,7.44,0,0,0,4.44-2,4.59,4.59,0,0,0,1.74-3.18C269,455.24,268.66,454.74,268,454.74Z" transform="translate(-31.04 -361.08)"/><path class="cls-2" d="M276.08,468.2a2,2,0,0,1-.49-.52,1,1,0,0,1-.2-.49,1.25,1.25,0,0,1,.08-.5c.07-.2.16-.45.27-.73q3.12-7.69,3.13-10.33a1.28,1.28,0,0,0-.51-1.05l-.31-.21a.46.46,0,0,1-.14-.38.76.76,0,0,1,.19-.51,1.87,1.87,0,0,1,.52-.43,2.9,2.9,0,0,1,1.36-.35,3.17,3.17,0,0,1,1.09.15,1.87,1.87,0,0,1,.66.42,1.59,1.59,0,0,1,.59,1.16,5.28,5.28,0,0,1-.13,1.24c-.1.42-.22.83-.35,1.24s-.27.78-.4,1.15-.22.63-.26.8a2.21,2.21,0,0,0-.09.68,1.37,1.37,0,0,0,.44-.63l.6-1.14A12.79,12.79,0,0,1,286,453a2.61,2.61,0,0,1,1.32-.32,1.58,1.58,0,0,1,1.25.54,1.94,1.94,0,0,1,.5,1.21,4.31,4.31,0,0,1-.09,1.09,3,3,0,0,1-.35.82,1.44,1.44,0,0,1-1.22.86.57.57,0,0,1-.37-.14l-.34-.29a1.48,1.48,0,0,0-1-.44,1.88,1.88,0,0,0-1.14.61,12.07,12.07,0,0,0-1.38,1.58,29.3,29.3,0,0,0-4,7.17l-.67,1.78a5.1,5.1,0,0,1-.46.94.69.69,0,0,1-.59.29,2.17,2.17,0,0,1-.79-.15A2.53,2.53,0,0,1,276.08,468.2Z" transform="translate(-31.04 -361.08)"/><path class="cls-2" d="M291.32,463.2a9.74,9.74,0,0,1,.45-2.55,12,12,0,0,1,1-2.36,12.71,12.71,0,0,1,1.51-2.16,11.67,11.67,0,0,1,1.87-1.79,7.33,7.33,0,0,1,4.43-1.64,3.4,3.4,0,0,1,3.5,2.16,4.41,4.41,0,0,1,.29,1.74,4.94,4.94,0,0,1-.38,1.86,5.58,5.58,0,0,1-1,1.54,7.14,7.14,0,0,1-1.55,1.25,10.76,10.76,0,0,1-2,.94,14.46,14.46,0,0,1-4.66.8,2.92,2.92,0,0,0-.07.64,4.29,4.29,0,0,0,.09,1,2.68,2.68,0,0,0,.37.94,1.76,1.76,0,0,0,1.59.92,6.57,6.57,0,0,0,3.47-1,5,5,0,0,0,1-.73,1,1,0,0,1,.65-.38.56.56,0,0,1,.48.33,1.37,1.37,0,0,1,.21.75,2.23,2.23,0,0,1-.46,1.41c-1.29,1.29-3.2,1.93-5.75,1.93a4.93,4.93,0,0,1-3.62-1.35A5.36,5.36,0,0,1,291.32,463.2Zm9-8.46c-1.08,0-2.11.73-3.1,2.21a16.49,16.49,0,0,0-2,4.5,7.44,7.44,0,0,0,4.44-2,4.57,4.57,0,0,0,1.73-3.18C301.33,455.24,301,454.74,300.28,454.74Z" transform="translate(-31.04 -361.08)"/><path class="cls-2" d="M313.47,465.7c.27,0,.4.17.4.52a2.24,2.24,0,0,1-.63,1.43,3.1,3.1,0,0,1-2.47,1.07,2.45,2.45,0,0,1-2.44-1.44,2.87,2.87,0,0,1-.24-1.23,5.8,5.8,0,0,1,.25-1.6q.26-.88.63-1.86c.25-.64.52-1.3.82-2l.81-1.93a9.82,9.82,0,0,0,.89-2.85,2,2,0,0,0-.14-.91,1.36,1.36,0,0,0-.32-.35l-.3-.21a.42.42,0,0,1-.16-.38.78.78,0,0,1,.21-.51,2,2,0,0,1,.54-.43,3.57,3.57,0,0,1,1.61-.35c1.51,0,2.26.39,2.26,1.18a8.51,8.51,0,0,1-.72,3.15c-.48,1.18-.89,2.13-1.23,2.86l-.92,2.11a10.13,10.13,0,0,0-1,3.36.6.6,0,0,0,.67.68,2.37,2.37,0,0,0,1-.17A1.17,1.17,0,0,1,313.47,465.7Zm3.14-16.6a2.88,2.88,0,0,1-.76.59,2.66,2.66,0,0,1-.91.27,1.6,1.6,0,0,1-.89-.14,2.16,2.16,0,0,1-.73-.57,2.38,2.38,0,0,1-.66-1.55,1.85,1.85,0,0,1,.89-1.81,2.62,2.62,0,0,1,1.38-.47,4.5,4.5,0,0,1,1,.09,1.82,1.82,0,0,1,.66.31,1.45,1.45,0,0,1,.75,1.23,3,3,0,0,1-.2,1.21A2.84,2.84,0,0,1,316.61,449.1Z" transform="translate(-31.04 -361.08)"/><path class="cls-2" d="M336.81,465.7c.26,0,.39.17.39.52a2.22,2.22,0,0,1-.62,1.43,3.12,3.12,0,0,1-2.47,1.07,2.44,2.44,0,0,1-2.44-1.44,2.87,2.87,0,0,1-.25-1.23,5.84,5.84,0,0,1,.26-1.6q.26-.88.63-1.86c.25-.64.52-1.3.82-2l.81-1.93a10.17,10.17,0,0,0,.89-2.85,1.83,1.83,0,0,0-.15-.91,1.34,1.34,0,0,0-.31-.35l-.31-.21a.44.44,0,0,1-.15-.38.82.82,0,0,1,.2-.51,1.88,1.88,0,0,1,.55-.43,3.57,3.57,0,0,1,1.61-.35c1.5,0,2.25.39,2.25,1.18a8.51,8.51,0,0,1-.72,3.15c-.48,1.18-.89,2.13-1.22,2.86l-.92,2.11a9.89,9.89,0,0,0-1,3.36.6.6,0,0,0,.67.68,2.37,2.37,0,0,0,1-.17A1.13,1.13,0,0,1,336.81,465.7ZM340,449.1a2.93,2.93,0,0,1-.77.59,2.6,2.6,0,0,1-.9.27,1.62,1.62,0,0,1-.9-.14A2.62,2.62,0,0,1,336,447.7a2.16,2.16,0,0,1,.26-1.17,2.26,2.26,0,0,1,.63-.64,2.65,2.65,0,0,1,1.39-.47,4.4,4.4,0,0,1,1,.09,1.94,1.94,0,0,1,.67.31,1.45,1.45,0,0,1,.75,1.23,3,3,0,0,1-.21,1.21A2.82,2.82,0,0,1,340,449.1Z" transform="translate(-31.04 -361.08)"/><path class="cls-2" d="M354.57,455.6c-.6,0-1.68.85-3.25,2.57-1.18,1.34-2,2.35-2.56,3l-1.38,1.75c-.59,1.12-1.06,2.06-1.4,2.8l-.83,1.78a4.69,4.69,0,0,1-.55.93.83.83,0,0,1-.65.27,2.08,2.08,0,0,1-.78-.15,2.16,2.16,0,0,1-.65-.37,1.41,1.41,0,0,1-.58-1.08,2.76,2.76,0,0,1,.33-.9l.59-1.24c.18-.37.39-.84.64-1.41l.86-2.1c1.2-3,1.81-5,1.81-5.84a1.25,1.25,0,0,0-.46-1.05l-.31-.21a.44.44,0,0,1-.15-.38.82.82,0,0,1,.2-.51,1.88,1.88,0,0,1,.55-.43,3.08,3.08,0,0,1,1.39-.35,3.17,3.17,0,0,1,1.09.15,2,2,0,0,1,.69.42,1.51,1.51,0,0,1,.58,1.12,4.82,4.82,0,0,1-.15,1.17,11.67,11.67,0,0,1-.38,1.19c-.16.41-.32.8-.49,1.18-.41.88-.67,1.41-.76,1.61s-.13.28-.09.23q2.81-3.64,3.38-4.3a14.11,14.11,0,0,1,1.84-1.87,3.88,3.88,0,0,1,2.29-.9,2.26,2.26,0,0,1,1.72.67,2.48,2.48,0,0,1,.65,1.78,6.74,6.74,0,0,1-.49,2.27c-.33.87-.55,1.48-.66,1.82l2.25-3,1.26-1.5a6.61,6.61,0,0,1,2-1.67,3.47,3.47,0,0,1,1.4-.4,2.91,2.91,0,0,1,1.08.2,2.35,2.35,0,0,1,.89.57,2.64,2.64,0,0,1,.79,2,6.08,6.08,0,0,1-.56,2.45c-.36.84-.69,1.53-1,2.06s-.54,1.08-.8,1.62a9.9,9.9,0,0,0-1.12,3.62c0,.55.23.83.68.83a2.53,2.53,0,0,0,1.17-.28,2.31,2.31,0,0,1,.68-.28.29.29,0,0,1,.32.33,2.67,2.67,0,0,1-1.39,2.28,3.17,3.17,0,0,1-1.71.63,3.32,3.32,0,0,1-1.25-.19,2.3,2.3,0,0,1-.86-.58,3.07,3.07,0,0,1-.86-2.22,8.25,8.25,0,0,1,.34-2.45,17.54,17.54,0,0,1,.8-2.17c.3-.7.61-1.35.92-1.93s.55-1.06.72-1.41a4.5,4.5,0,0,0,.49-1.58c0-.39-.21-.59-.63-.59s-1.54.91-3,2.74c-1.08,1.42-1.83,2.44-2.25,3.07L356,462.94c-.59,1.12-1,2.06-1.36,2.8l-.78,1.78a5,5,0,0,1-.51.93.72.72,0,0,1-.6.27,2.34,2.34,0,0,1-.74-.12,2.15,2.15,0,0,1-.62-.33,1.21,1.21,0,0,1-.6-.94,4.09,4.09,0,0,1,.33-1.36c.22-.58.49-1.23.82-1.94l2.15-4.54a11.83,11.83,0,0,0,1.15-3.21C355.2,455.82,355,455.6,354.57,455.6Zm1.52,4.32s0,0,0,0l0,0A.09.09,0,0,0,356.09,459.92Z" transform="translate(-31.04 -361.08)"/><path class="cls-2" d="M383.59,466.3a5.69,5.69,0,0,1-.29-2.08,20.75,20.75,0,0,1,.34-2.94,30.37,30.37,0,0,1,5-11.72,1.22,1.22,0,0,1,.93-.6,2.3,2.3,0,0,1,.95.21,4.39,4.39,0,0,1,.82.51c.59.49.78.89.58,1.19q-2.16,3.47-3.54,6.26a11.39,11.39,0,0,0,6.13-2.21,6.28,6.28,0,0,0,2.9-5.18,2.52,2.52,0,0,0-2.06-2.64,5.82,5.82,0,0,0-1.49-.17,9.29,9.29,0,0,0-1.79.18,12.7,12.7,0,0,0-1.79.48,13.05,13.05,0,0,0-3.11,1.66,1.32,1.32,0,0,1-.74.29,1.77,1.77,0,0,1-.73-.18,2.8,2.8,0,0,1-.71-.43c-.8-.68-.68-1.38.34-2.1a14,14,0,0,1,6.56-2c.54-.05,1.27-.07,2.17-.07a9.41,9.41,0,0,1,2.77.44,6.29,6.29,0,0,1,2.28,1.2,5,5,0,0,1,1.58,3.92,7.09,7.09,0,0,1-1.79,4.48,12.41,12.41,0,0,1-4.23,3.31,4.15,4.15,0,0,1,1.86,1.54,3.77,3.77,0,0,1,.59,2.13,5.55,5.55,0,0,1-.45,2.1,6.26,6.26,0,0,1-1.14,1.73,8.18,8.18,0,0,1-1.65,1.37,10.77,10.77,0,0,1-2,1,12.27,12.27,0,0,1-4.32.8Q384.49,468.72,383.59,466.3Zm3.71-6.69a15.21,15.21,0,0,0-1.23,5.05,2.14,2.14,0,0,0,.52,1.6,2,2,0,0,0,1.49.56,5.05,5.05,0,0,0,2-.42,6.78,6.78,0,0,0,1.86-1.12,4.91,4.91,0,0,0,2-3.67,2.45,2.45,0,0,0-1.68-2.55,4.47,4.47,0,0,0-1.12-.26,10.1,10.1,0,0,0-2,.37Z" transform="translate(-31.04 -361.08)"/><path class="cls-2" d="M414.46,464.49c0,.94.33,1.41,1,1.41a2.58,2.58,0,0,0,1.14-.22,1.9,1.9,0,0,1,.6-.21c.22,0,.32.11.32.34a2.75,2.75,0,0,1-1.38,2.27,3.25,3.25,0,0,1-3,.49,2.54,2.54,0,0,1-1.47-1.52,3.14,3.14,0,0,1-.23-1.09,10.28,10.28,0,0,1,.15-1.69,8.51,8.51,0,0,1-3.54,4,4,4,0,0,1-1.79.43,3.3,3.3,0,0,1-1.65-.39,3.6,3.6,0,0,1-1.19-1.08,5.75,5.75,0,0,1-.9-3.62,11.24,11.24,0,0,1,1.61-5.35,12.42,12.42,0,0,1,3.52-4,6.86,6.86,0,0,1,4-1.58,3.46,3.46,0,0,1,3,1.7c.7-1.13,1.33-1.7,1.87-1.7a2.29,2.29,0,0,1,1.32.32c.56.41.76.77.59,1.07q-3.84,7.89-3.95,9.82A5.22,5.22,0,0,0,414.46,464.49Zm-8.51.06c0,1.23.39,1.84,1.18,1.84q.9,0,2.22-1.53a21,21,0,0,0,3.42-6.08,21.62,21.62,0,0,0,.8-2.39,1.8,1.8,0,0,0-.87-1.53,1.66,1.66,0,0,0-.83-.17,2.71,2.71,0,0,0-1.27.4,6.53,6.53,0,0,0-1.41,1.09,9.39,9.39,0,0,0-1.27,1.63,12.67,12.67,0,0,0-1,2.05A12.5,12.5,0,0,0,406,464.55Z" transform="translate(-31.04 -361.08)"/><path class="cls-2" d="M422,467.08a3.45,3.45,0,0,1-.18-1.16,5.38,5.38,0,0,1,.22-1.45,16.68,16.68,0,0,1,.57-1.68c.24-.59.49-1.18.77-1.8l.83-1.84q1.59-3.54,1.18-4.2a2,2,0,0,0-.69-.58.41.41,0,0,1-.19-.38.76.76,0,0,1,.23-.51,2,2,0,0,1,.57-.43,3.57,3.57,0,0,1,1.5-.35,3.13,3.13,0,0,1,1.15.16,1.81,1.81,0,0,1,.63.41,1.54,1.54,0,0,1,.51,1.12,5.66,5.66,0,0,1-.2,1.37c-.13.5-.31,1.05-.52,1.65s-.45,1.2-.71,1.83c-.7,1.66-1.18,2.75-1.42,3.29l-.57,1.18a4.39,4.39,0,0,0-.48,1.48,1,1,0,0,0,.14.61.6.6,0,0,0,.5.18,1.58,1.58,0,0,0,.8-.28,7.5,7.5,0,0,0,.94-.74,13.2,13.2,0,0,0,1.05-1.06c.36-.41.72-.83,1.07-1.27a20.3,20.3,0,0,0,2-2.89q3.31-6.11,3.51-6.38a1.38,1.38,0,0,1,1-.66,3.46,3.46,0,0,1,.9.11,2.27,2.27,0,0,1,.66.33c.4.3.53.63.37,1s-.35.87-.57,1.52q-2.93,8.44-3.78,10.53c-.58,1.39-1.08,2.51-1.51,3.35a26.56,26.56,0,0,1-1.51,2.55,20.2,20.2,0,0,1-1.85,2.35c-1.49,1.59-2.89,2.45-4.2,2.56a1.92,1.92,0,0,1-1.2-.22c-.51-.3-.76-.6-.76-.87s.23-.47.69-.58a4.45,4.45,0,0,0,1.45-.64,10.57,10.57,0,0,0,1.43-1.13,14.61,14.61,0,0,0,3.14-4.2,29.29,29.29,0,0,0,1.53-3.77l1.2-3.65c-.3.36-.62.78-1,1.26l-1.1,1.47a16.89,16.89,0,0,1-2.4,2.59,5.42,5.42,0,0,1-3.23,1.46A2.46,2.46,0,0,1,422,467.08Z" transform="translate(-31.04 -361.08)"/><path class="cls-2" d="M441.75,463.2a10.16,10.16,0,0,1,.44-2.55,12.6,12.6,0,0,1,1-2.36,13.3,13.3,0,0,1,1.51-2.16,11.73,11.73,0,0,1,1.88-1.79A7.31,7.31,0,0,1,451,452.7a3.41,3.41,0,0,1,3.5,2.16,4.41,4.41,0,0,1,.29,1.74,4.76,4.76,0,0,1-.39,1.86,5.17,5.17,0,0,1-1,1.54,7.07,7.07,0,0,1-1.54,1.25,10.76,10.76,0,0,1-2,.94,14.46,14.46,0,0,1-4.66.8,2.79,2.79,0,0,0-.08.64,3.82,3.82,0,0,0,.1,1,2.87,2.87,0,0,0,.36.94,1.77,1.77,0,0,0,1.6.92,6.54,6.54,0,0,0,3.46-1,5.09,5.09,0,0,0,1-.73,1,1,0,0,1,.65-.38.59.59,0,0,1,.48.33,1.37,1.37,0,0,1,.21.75,2.29,2.29,0,0,1-.46,1.41q-1.94,1.93-5.75,1.93a4.93,4.93,0,0,1-3.62-1.35A5.36,5.36,0,0,1,441.75,463.2Zm8.95-8.46c-1.07,0-2.1.73-3.09,2.21a16.5,16.5,0,0,0-2,4.5,7.47,7.47,0,0,0,4.45-2,4.61,4.61,0,0,0,1.73-3.18C451.76,455.24,451.41,454.74,450.7,454.74Z" transform="translate(-31.04 -361.08)"/><path class="cls-2" d="M458.82,468.2a2.17,2.17,0,0,1-.49-.52,1.08,1.08,0,0,1-.2-.49,1.29,1.29,0,0,1,.09-.5,7,7,0,0,1,.27-.73q3.12-7.69,3.12-10.33a1.3,1.3,0,0,0-.5-1.05l-.31-.21a.5.5,0,0,1-.15-.38.77.77,0,0,1,.2-.51,1.73,1.73,0,0,1,.52-.43,2.89,2.89,0,0,1,1.35-.35,3.13,3.13,0,0,1,1.09.15,1.91,1.91,0,0,1,.67.42,1.62,1.62,0,0,1,.59,1.16,5.3,5.3,0,0,1-.14,1.24c-.1.42-.21.83-.34,1.24l-.4,1.15a6.26,6.26,0,0,0-.26.8,2.36,2.36,0,0,0-.1.68,1.33,1.33,0,0,0,.45-.63l.6-1.14a12.78,12.78,0,0,1,3.89-4.75,2.64,2.64,0,0,1,1.33-.32,1.6,1.6,0,0,1,1.25.54,2,2,0,0,1,.5,1.21,3.85,3.85,0,0,1-.1,1.09,3,3,0,0,1-.34.82,1.46,1.46,0,0,1-1.23.86.56.56,0,0,1-.36-.14l-.34-.29a1.49,1.49,0,0,0-1-.44,1.84,1.84,0,0,0-1.13.61,12.07,12.07,0,0,0-1.39,1.58,29.6,29.6,0,0,0-4,7.17l-.68,1.78a4.52,4.52,0,0,1-.46.94.67.67,0,0,1-.59.29,2.16,2.16,0,0,1-.78-.15A2.75,2.75,0,0,1,458.82,468.2Z" transform="translate(-31.04 -361.08)"/><path class="cls-2" d="M479,466.81c-1.4,1.23-2.49,1.85-3.28,1.85a1.66,1.66,0,0,1-1.65-1.23,2.21,2.21,0,0,1-.17-.8,6,6,0,0,1,.31-1.93c.21-.62.42-1.2.63-1.75l1.34-3.47a22.76,22.76,0,0,0,.95-3,1.56,1.56,0,0,0,0-1.14,2.47,2.47,0,0,0-.5-.52l-.54-.4a.55.55,0,0,1-.25-.45.8.8,0,0,1,.22-.51,2.09,2.09,0,0,1,.59-.43,3.57,3.57,0,0,1,1.53-.35,3.73,3.73,0,0,1,1.24.16,2.43,2.43,0,0,1,.75.41,1.58,1.58,0,0,1,.56,1.21,6.28,6.28,0,0,1-.24,1.61c-.15.59-.35,1.22-.59,1.88s-.51,1.36-.81,2.07l-.84,2.12A20.91,20.91,0,0,0,477,466c1-.33,2.23-1.5,3.81-3.53a39.25,39.25,0,0,0,4.59-7.58,1.2,1.2,0,0,1,.57-.69,2.9,2.9,0,0,1,1.39-.23c.89,0,1.35.3,1.38.82a2.06,2.06,0,0,1-.25,1.05l-.47,1-.6,1.23a14.34,14.34,0,0,0-1.79,5.9,2.41,2.41,0,0,0,.86,2.16,1.25,1.25,0,0,0,.75.19,2.68,2.68,0,0,0,1.19-.36,5.43,5.43,0,0,0,1.32-1,8.79,8.79,0,0,0,1.17-1.47,10.8,10.8,0,0,0,.95-1.78,9.43,9.43,0,0,0,.84-3.56,6.23,6.23,0,0,0-1-3.91c-.22-.26-.15-.58.2-.93a2.42,2.42,0,0,1,1.78-.57,2.06,2.06,0,0,1,2,1.67,6.34,6.34,0,0,1,.21,1.88,10,10,0,0,1-.45,2.8,14.35,14.35,0,0,1-1.2,3,16.42,16.42,0,0,1-1.75,2.65,16.14,16.14,0,0,1-2.07,2.13,7,7,0,0,1-4.33,1.93c-2.28,0-3.41-1.47-3.41-4.42a10.69,10.69,0,0,1,.18-2A24.7,24.7,0,0,1,479,466.81Z" transform="translate(-31.04 -361.08)"/><path class="cls-2" d="M511.68,464.49c0,.94.33,1.41,1,1.41a2.55,2.55,0,0,0,1.14-.22,1.85,1.85,0,0,1,.61-.21c.21,0,.32.11.32.34a2.75,2.75,0,0,1-1.38,2.27,3.27,3.27,0,0,1-3,.49,2.54,2.54,0,0,1-1.47-1.52,3.14,3.14,0,0,1-.23-1.09,9.34,9.34,0,0,1,.16-1.69,8.51,8.51,0,0,1-3.54,4,4,4,0,0,1-1.8.43,3.35,3.35,0,0,1-1.65-.39,3.57,3.57,0,0,1-1.18-1.08,5.75,5.75,0,0,1-.91-3.62,11.36,11.36,0,0,1,1.61-5.35,12.44,12.44,0,0,1,3.53-4,6.86,6.86,0,0,1,4-1.58,3.45,3.45,0,0,1,3,1.7c.71-1.13,1.33-1.7,1.87-1.7a2.27,2.27,0,0,1,1.32.32c.56.41.76.77.6,1.07-2.57,5.26-3.88,8.53-4,9.82A5.22,5.22,0,0,0,511.68,464.49Zm-8.5.06c0,1.23.39,1.84,1.17,1.84.61,0,1.35-.51,2.23-1.53a24.64,24.64,0,0,0,4.21-8.47,1.8,1.8,0,0,0-.87-1.53,1.62,1.62,0,0,0-.82-.17,2.68,2.68,0,0,0-1.27.4,6.08,6.08,0,0,0-1.41,1.09,9.43,9.43,0,0,0-1.28,1.63,13.54,13.54,0,0,0-1,2.05A12.68,12.68,0,0,0,503.18,464.55Z" transform="translate(-31.04 -361.08)"/><path class="cls-2" d="M520,468a2.86,2.86,0,0,1-.63-1,4.18,4.18,0,0,1-.23-1.44,8.9,8.9,0,0,1,.37-2.2c.25-.92.57-2,1-3.14l1.29-3.82A58.54,58.54,0,0,0,524.89,444q.14-1.29,1.26-1.29a1.86,1.86,0,0,1,1.16.34,1.79,1.79,0,0,1,.86,1.5,12,12,0,0,1-.29,2c-.17.8-.4,1.66-.67,2.6s-.6,1.92-1,3l-2.12,6.23c-1.22,3.53-1.82,5.82-1.82,6.85,0,.55.22.83.67.83a2.53,2.53,0,0,0,1.17-.28,2.32,2.32,0,0,1,.69-.28.29.29,0,0,1,.32.33,2.68,2.68,0,0,1-1.4,2.28,3.12,3.12,0,0,1-1.71.63,3.39,3.39,0,0,1-1.25-.19A2.27,2.27,0,0,1,520,468Z" transform="translate(-31.04 -361.08)"/><path class="cls-2" d="M545.64,465.47c.22,0,.32.11.32.34a2.75,2.75,0,0,1-1.36,2.27,3,3,0,0,1-1.71.64,3.45,3.45,0,0,1-1.28-.19,2.3,2.3,0,0,1-.86-.58,3.56,3.56,0,0,1-.86-2.53,6,6,0,0,1,.13-1,13.83,13.83,0,0,1-2.13,2.69,5.32,5.32,0,0,1-3.52,1.63,3.41,3.41,0,0,1-3.55-2.45,7,7,0,0,1-.31-2.27,9.87,9.87,0,0,1,.41-2.76,13.29,13.29,0,0,1,1.13-2.66,14.7,14.7,0,0,1,1.66-2.33,13.9,13.9,0,0,1,2-1.88,7,7,0,0,1,4-1.67,3.43,3.43,0,0,1,2.9,1.47q2.65-9.14,4-10.78a1.59,1.59,0,0,1,1.2-.67,2,2,0,0,1,1.58.6.62.62,0,0,1,.17.4,2.16,2.16,0,0,1-.25.73c-.16.36-.4.94-.72,1.73q-1.36,3.6-1.91,5.28c-1,2.85-1.58,4.81-1.91,5.88l-.84,2.84a25.08,25.08,0,0,0-1.09,4.81c0,.69.25,1,.75,1a2.86,2.86,0,0,0,1.11-.18l.58-.28A.68.68,0,0,1,545.64,465.47Zm-10.53.95q1.57,0,3.62-3.08a20.43,20.43,0,0,0,3-6.95,1.8,1.8,0,0,0-.87-1.53,1.68,1.68,0,0,0-.84-.17,2.84,2.84,0,0,0-1.3.41,6.22,6.22,0,0,0-1.44,1.09,9.32,9.32,0,0,0-1.3,1.62,12,12,0,0,0-1.05,2,11.22,11.22,0,0,0-1,4.45C533.93,465.69,534.32,466.42,535.11,466.42Z" transform="translate(-31.04 -361.08)"/></svg>